<?xml version="1.0" encoding="utf-8" standalone="yes"?>
<!DOCTYPE svg PUBLIC "-//W3C//DTD SVG 1.1//EN" "http://www.w3.org/Graphics/SVG/1.1/DTD/svg11.dtd">
<svg width="816" height="684" viewBox="0 0 816 684" style="fill:none;stroke:none;fill-rule:evenodd;clip-rule:evenodd;stroke-linecap:round;stroke-linejoin:round;stroke-miterlimit:1.5;" version="1.1" xmlns="http://www.w3.org/2000/svg" xmlns:xlink="http://www.w3.org/1999/xlink"><style class="text-font-style fontImports" data-font-family="Roboto">@import url('https://fonts.googleapis.com/css2?family=Roboto:wght@400;700&amp;display=block');</style><rect id="" x="0" y="0" width="816" height="684" style="fill: #2c2c2c;"></rect><g id="items" style="isolation: isolate"><g id="blend" style="mix-blend-mode: normal"><g id="g-root-tf_1urswbb1k46iod-fill" data-item-order="-837216"><g id="tf_1urswbb1k46iod-fill" stroke="none" fill="#2c2c2c"><g><path d="M 0 0L 816 0L 816 684L 0 684Z"></path></g></g></g><g id="g-root-cp_0_g-0_1urszh31k3lfre-fill" data-item-order="-451549" transform="translate(230, 194)"></g><g id="g-root-cp_1_g-1_1urszh31k3lfrg-fill" data-item-order="-451546" transform="translate(230, 194)"></g><g id="g-root-cp_3_g-3_1qbzhcn1k3lgjq-fill" data-item-order="-451542" transform="translate(230, 386)"></g><g id="g-root-cp_2_g-2_1lw5z871k3lhc0-fill" data-item-order="-451538" transform="translate(422, 194)"></g><g id="g-root-cp_4_g-4_1d15g2f1k3leyy-fill" data-item-order="-451534" transform="translate(422, 386)"></g><g id="g-root-tx_full_v9vfkn1k3lhc5-fill" data-item-order="0" transform="translate(134, 206)"><g id="tx_full_v9vfkn1k3lhc5-fill" stroke="none" fill="#4f91fc"><g><text style="font: bold 20px Roboto, sans-serif; white-space: pre;" font-weight="bold" font-size="20px" font-family="Roboto, sans-serif"><tspan x="23.44" y="34" dominant-baseline="ideographic">Full</tspan></text></g></g></g><g id="g-root-tx_2_1qduwlz1k3lfka-fill" data-item-order="0" transform="translate(614, 146)"><g id="tx_2_1qduwlz1k3lfka-fill" stroke="none" fill="#43dd93"><g><text style="font: bold 30px Roboto, sans-serif; white-space: pre;" font-weight="bold" font-size="30px" font-family="Roboto, sans-serif"><tspan x="13.39" y="46" dominant-baseline="ideographic">2</tspan></text></g></g></g><g id="g-root-tx_mostlyfu_4nkvx31k3lhc8-fill" data-item-order="0" transform="translate(614, 206)"><g id="tx_mostlyfu_4nkvx31k3lhc8-fill" stroke="none" fill="#43dd93"><g><text style="font: bold 20px Roboto, sans-serif; white-space: pre;" font-weight="bold" font-size="20px" font-family="Roboto, sans-serif"><tspan x="12" y="34" dominant-baseline="ideographic">Mostly Full</tspan></text></g></g></g><g id="g-root-tx_booleanv_meuwev1k3lez2-fill" data-item-order="0" transform="translate(50, 242)"><g id="tx_booleanv_meuwev1k3lez2-fill" stroke="none" fill="#f4f4f4"><g><text style="font: 15px Roboto, sans-serif; white-space: pre;" font-size="15px" font-family="Roboto, sans-serif"><tspan x="16.52" y="31" dominant-baseline="ideographic">Boolean view sees </tspan><tspan x="18.28" y="49" dominant-baseline="ideographic">the glass as either </tspan><tspan x="72.44" y="67" dominant-baseline="ideographic">full or not.</tspan></text></g></g></g><g id="g-root-ic_1_1ly1ehj1k3lgcj-fill" data-item-order="0" transform="translate(266, 230)"></g><g id="g-root-ic_perc_6ifmf1k3mtcc-fill" data-item-order="0" transform="translate(458, 230)"></g><g id="g-root-tx_fuzzyint_13zw61j1k3r1u3-fill" data-item-order="0" transform="translate(614, 494)"><g id="tx_fuzzyint_13zw61j1k3r1u3-fill" stroke="none" fill="#f4f4f4"><g><text style="font: 15px Roboto, sans-serif; white-space: pre;" font-size="15px" font-family="Roboto, sans-serif"><tspan x="12" y="28" dominant-baseline="ideographic">Fuzzy interpretation </tspan><tspan x="12" y="46" dominant-baseline="ideographic">acknowledges </tspan><tspan x="12" y="64" dominant-baseline="ideographic">varying degrees of </tspan><tspan x="12" y="82" dominant-baseline="ideographic">emptiness.</tspan></text></g></g></g><g id="g-root-tx_3_1haq7br1k3r3ex-fill" data-item-order="0" transform="translate(134, 398)"><g id="tx_3_1haq7br1k3r3ex-fill" stroke="none" fill="#fb6762"><g><text style="font: bold 30px Roboto, sans-serif; white-space: pre;" font-weight="bold" font-size="30px" font-family="Roboto, sans-serif"><tspan x="13.39" y="46" dominant-baseline="ideographic">3</tspan></text></g></g></g><g id="g-root-tx_1_hz1eaf1k3lfrb-fill" data-item-order="0" transform="translate(134, 146)"><g id="tx_1_hz1eaf1k3lfrb-fill" stroke="none" fill="#4f91fc"><g><text style="font: bold 30px Roboto, sans-serif; white-space: pre;" font-weight="bold" font-size="30px" font-family="Roboto, sans-serif"><tspan x="13.39" y="46" dominant-baseline="ideographic">1</tspan></text></g></g></g><g id="g-root-tx_booleanv_18lbxxz1k3lfr8-fill" data-item-order="0" transform="translate(128, 38)"><g id="tx_booleanv_18lbxxz1k3lfr8-fill" stroke="none" fill="#f4f4f4"><g><text style="font: bold 25px Roboto, sans-serif; white-space: pre;" font-weight="bold" font-size="25px" font-family="Roboto, sans-serif"><tspan x="13.54" y="43" dominant-baseline="ideographic">Boolean vs. Fuzzy Interpretation of Water Glass</tspan></text></g></g></g><g id="g-root-tx_4_qofno71k3r3f0-fill" data-item-order="0" transform="translate(614, 398)"><g id="tx_4_qofno71k3r3f0-fill" stroke="none" fill="#f79438"><g><text style="font: bold 30px Roboto, sans-serif; white-space: pre;" font-weight="bold" font-size="30px" font-family="Roboto, sans-serif"><tspan x="13.39" y="46" dominant-baseline="ideographic">4</tspan></text></g></g></g><g id="g-root-ic_glas_4kgihj1k3o7ph-fill" data-item-order="0" transform="translate(266, 422)"></g><g id="g-root-ic_full_1q88mtz1k3pngu-fill" data-item-order="0" transform="translate(458, 422)"></g><g id="g-root-tx_empty_w5uf1k3r18v-fill" data-item-order="0" transform="translate(110, 458)"><g id="tx_empty_w5uf1k3r18v-fill" stroke="none" fill="#fb6762"><g><text style="font: bold 20px Roboto, sans-serif; white-space: pre;" font-weight="bold" font-size="20px" font-family="Roboto, sans-serif"><tspan x="23.33" y="34" dominant-baseline="ideographic">Empty</tspan></text></g></g></g><g id="g-root-tx_mostlyem_1cvj6af1k3r11e-fill" data-item-order="0" transform="translate(614, 458)"><g id="tx_mostlyem_1cvj6af1k3r11e-fill" stroke="none" fill="#f79438"><g><text style="font: bold 20px Roboto, sans-serif; white-space: pre;" font-weight="bold" font-size="20px" font-family="Roboto, sans-serif"><tspan x="12" y="34" dominant-baseline="ideographic">Mostly Empty</tspan></text></g></g></g><g id="g-root-tx_booleanv_1q6d7kn1k3r2m8-fill" data-item-order="0" transform="translate(50, 494)"><g id="tx_booleanv_1q6d7kn1k3r2m8-fill" stroke="none" fill="#f4f4f4"><g><text style="font: 15px Roboto, sans-serif; white-space: pre;" font-size="15px" font-family="Roboto, sans-serif"><tspan x="16.52" y="31" dominant-baseline="ideographic">Boolean view sees </tspan><tspan x="18.28" y="49" dominant-baseline="ideographic">the glass as either </tspan><tspan x="51.67" y="67" dominant-baseline="ideographic">empty or not.</tspan></text></g></g></g><g id="g-root-tx_fuzzyint_8duvr1k3leyp-fill" data-item-order="0" transform="translate(614, 242)"><g id="tx_fuzzyint_8duvr1k3leyp-fill" stroke="none" fill="#f4f4f4"><g><text style="font: 15px Roboto, sans-serif; white-space: pre;" font-size="15px" font-family="Roboto, sans-serif"><tspan x="12" y="28" dominant-baseline="ideographic">Fuzzy interpretation </tspan><tspan x="12" y="46" dominant-baseline="ideographic">acknowledges </tspan><tspan x="12" y="64" dominant-baseline="ideographic">varying degrees of </tspan><tspan x="12" y="82" dominant-baseline="ideographic">fullness.</tspan></text></g></g></g><g id="g-root-tf_1urswbb1k46iod-stroke" data-item-order="-837216"></g><g id="g-root-cp_0_g-0_1urszh31k3lfre-stroke" data-item-order="-451549" transform="translate(230, 194)"><g id="cp_0_g-0_1urszh31k3lfre-stroke" fill="none" stroke-linecap="round" stroke-linejoin="round" stroke-miterlimit="4" stroke="#d3d3d3" stroke-width="2"><g><path d="M 178 10L 178 346M 10 177.9999L 346 178"></path></g></g></g><g id="g-root-cp_1_g-1_1urszh31k3lfrg-stroke" data-item-order="-451546" transform="translate(230, 194)"><g id="cp_1_g-1_1urszh31k3lfrg-stroke" fill="none" stroke-linecap="round" stroke-linejoin="round" stroke-miterlimit="4" stroke="#4f91fc" stroke-width="2"><g><path d="M 141.7804 122.1418C 149.4968 110.673 154 96.8624 154 82C 154 42.2355 121.7645 10 82 10C 42.2355 10 10 42.2355 10 82C 10 121.7645 42.2355 154 82 154C 96.3009 154 109.628 149.8306 120.8321 142.6411L 154 154L 141.7804 122.1418Z"></path></g></g></g><g id="g-root-cp_3_g-3_1qbzhcn1k3lgjq-stroke" data-item-order="-451542" transform="translate(230, 386)"><g id="cp_3_g-3_1qbzhcn1k3lgjq-stroke" fill="none" stroke-linecap="round" stroke-linejoin="round" stroke-miterlimit="4" stroke="#fb6762" stroke-width="2"><g><path d="M 141.7804 41.8582C 149.4968 53.327 154 67.1376 154 82C 154 121.7645 121.7645 154 82 154C 42.2355 154 10 121.7645 10 82C 10 42.2355 42.2355 10 82 10C 96.3009 10 109.628 14.1694 120.8321 21.3589L 154 10L 141.7804 41.8582Z"></path></g></g></g><g id="g-root-cp_2_g-2_1lw5z871k3lhc0-stroke" data-item-order="-451538" transform="translate(422, 194)"><g id="cp_2_g-2_1lw5z871k3lhc0-stroke" fill="none" stroke-linecap="round" stroke-linejoin="round" stroke-miterlimit="4" stroke="#43dd93" stroke-width="2"><g><path d="M 22.2196 122.1418C 14.5032 110.673 10 96.8624 10 82C 10 42.2355 42.2355 10 82 10C 121.7645 10 154 42.2355 154 82C 154 121.7645 121.7645 154 82 154C 67.6991 154 54.372 149.8306 43.1679 142.6411L 10 154L 22.2196 122.1418Z"></path></g></g></g><g id="g-root-cp_4_g-4_1d15g2f1k3leyy-stroke" data-item-order="-451534" transform="translate(422, 386)"><g id="cp_4_g-4_1d15g2f1k3leyy-stroke" fill="none" stroke-linecap="round" stroke-linejoin="round" stroke-miterlimit="4" stroke="#f79438" stroke-width="2"><g><path d="M 22.2196 41.8582C 14.5032 53.327 10 67.1376 10 82C 10 121.7645 42.2355 154 82 154C 121.7645 154 154 121.7645 154 82C 154 42.2355 121.7645 10 82 10C 67.6991 10 54.372 14.1694 43.1679 21.3589L 10 10L 22.2196 41.8582Z"></path></g></g></g><g id="g-root-tx_full_v9vfkn1k3lhc5-stroke" data-item-order="0" transform="translate(134, 206)"></g><g id="g-root-tx_2_1qduwlz1k3lfka-stroke" data-item-order="0" transform="translate(614, 146)"></g><g id="g-root-tx_mostlyfu_4nkvx31k3lhc8-stroke" data-item-order="0" transform="translate(614, 206)"></g><g id="g-root-tx_booleanv_meuwev1k3lez2-stroke" data-item-order="0" transform="translate(50, 242)"></g><g id="g-root-ic_1_1ly1ehj1k3lgcj-stroke" data-item-order="0" transform="translate(266, 230)"><g id="ic_1_1ly1ehj1k3lgcj-stroke" fill="none" stroke-linecap="round" stroke-linejoin="round" stroke-miterlimit="4" stroke="#4f91fc" stroke-width="2"><g><path d="M 62.754997 79.128998C 62.687878 79.90667 62.035561 80.502892 61.254997 80.5L 30.739 80.5C 29.958443 80.502892 29.306122 79.90667 29.239 79.128998L 23.5 13.129C 23.463772 12.70934 23.605665 12.293785 23.890991 11.983921C 24.176317 11.674056 24.578781 11.498439 25 11.5L 67 11.5C 67.421219 11.498439 67.823685 11.674056 68.109009 11.983921C 68.394333 12.293785 68.536224 12.70934 68.5 13.129ZM 25.450001 35.5L 66.550003 35.5"></path></g></g></g><g id="g-root-ic_perc_6ifmf1k3mtcc-stroke" data-item-order="0" transform="translate(458, 230)"><g id="ic_perc_6ifmf1k3mtcc-stroke" fill="none" stroke-linecap="round" stroke-linejoin="round" stroke-miterlimit="4" stroke="#43dd93" stroke-width="2"><g><path d="M 24.775002 73.893997L 24.775002 61.456001M 29.605 60.499001C 25.702194 62.106518 21.255371 61.666779 17.743 59.326004L 17.743 59.325996C 13.774848 56.680725 11.626872 52.032379 12.184 47.295998L 15.571 13.978C 15.687601 12.833161 16.64925 11.960818 17.800001 11.956L 31.741001 11.956C 32.895809 11.956065 33.863598 12.829275 33.981998 13.978L 37.365997 47.296001C 37.42337 47.765831 37.452419 48.238682 37.452999 48.712002M 13.945 29.955999L 35.605 29.955999M 38.739998 72.543999C 38.739998 76.686134 42.097866 80.043999 46.239998 80.043999C 50.382137 80.043999 53.739998 76.686134 53.739998 72.543999L 53.739998 65.043999C 53.739998 60.901867 50.382137 57.544003 46.239998 57.544003C 42.097866 57.544003 38.739998 60.901867 38.739998 65.043999ZM 38.739998 65.043999L 53.739998 72.543999M 64.903 78.543999L 75.403 63.543999M 73.903 77.043999C 73.903 78.700851 75.24614 80.043999 76.903 80.043999C 78.559853 80.043999 79.903 78.700851 79.903 77.043999C 79.903 75.387146 78.559853 74.043999 76.903 74.043999C 75.24614 74.043999 73.903 75.387146 73.903 77.043999M 60.403 65.043999C 60.403 66.700851 61.746143 68.043999 63.403 68.043999C 65.059853 68.043999 66.403 66.700851 66.403 65.043999C 66.403 63.387146 65.059853 62.043999 63.403 62.043999C 61.746143 62.043999 60.403 63.387146 60.403 65.043999M 31.09 79.626999C 28.997374 79.913826 26.887171 80.053169 24.775 80.043999C 17.851 80.043999 12.238 78.667 12.238 76.969002C 12.238 75.270996 17.851 73.899994 24.775002 73.899994C 26.948891 73.890594 29.120598 74.038979 31.273003 74.344009"></path></g></g></g><g id="g-root-tx_fuzzyint_13zw61j1k3r1u3-stroke" data-item-order="0" transform="translate(614, 494)"></g><g id="g-root-tx_3_1haq7br1k3r3ex-stroke" data-item-order="0" transform="translate(134, 398)"></g><g id="g-root-tx_1_hz1eaf1k3lfrb-stroke" data-item-order="0" transform="translate(134, 146)"></g><g id="g-root-tx_booleanv_18lbxxz1k3lfr8-stroke" data-item-order="0" transform="translate(128, 38)"></g><g id="g-root-tx_4_qofno71k3r3f0-stroke" data-item-order="0" transform="translate(614, 398)"></g><g id="g-root-ic_glas_4kgihj1k3o7ph-stroke" data-item-order="0" transform="translate(266, 422)"><g id="ic_glas_4kgihj1k3o7ph-stroke" fill="none" stroke-linecap="round" stroke-linejoin="round" stroke-miterlimit="4" stroke="#fb6762" stroke-width="2"><g><path d="M 10 10M 12.25 12.25L 79.75 79.75M 46 73.597L 46 61.75M 58.396 45.667L 55.203999 14.272C 55.087044 13.123744 54.120197 12.250215 52.966003 12.25L 39.030998 12.25C 37.876804 12.250215 36.909962 13.123744 36.793003 14.272L 35.892998 23.160999M 34.717003 34.717003L 33.400002 47.59C 32.725048 53.352646 36.04723 58.838379 41.466759 60.910175C 46.886288 62.981972 53.020687 61.11134 56.362 56.368ZM 42.979 30.25L 56.829998 30.25M 33.321999 76.675003C 33.321999 78.373276 38.935005 79.75 45.859001 79.75C 52.782993 79.75 58.396 78.373276 58.396 76.675003C 58.396 74.97673 52.782993 73.600006 45.859001 73.600006C 38.935005 73.600006 33.321999 74.97673 33.321999 76.675003"></path></g></g></g><g id="g-root-ic_full_1q88mtz1k3pngu-stroke" data-item-order="0" transform="translate(458, 422)"><g id="ic_full_1q88mtz1k3pngu-stroke" fill="none" stroke-linecap="round" stroke-linejoin="round" stroke-miterlimit="4" stroke="#f79438" stroke-width="2"><g><path d="M 23.5 15.667C 23.500002 17.96837 33.573593 19.834 46.000004 19.834C 58.426407 19.834 68.5 17.96837 68.5 15.667C 68.5 13.365629 58.426407 11.5 46.000004 11.5C 33.573593 11.5 23.500002 13.365629 23.500002 15.667ZM 26.5 46.746998C 26.500002 48.741852 35.23045 50.359001 46 50.359001C 56.769554 50.359001 65.5 48.741852 65.5 46.747002C 65.5 44.752148 56.769554 43.135002 46 43.135002C 35.23045 43.135002 26.500002 44.752148 26.500002 46.747002ZM 10 10M 68.5 15.667L 62.5 77.556999C 62.5 79.242996 55.113998 80.5 46 80.5C 36.886002 80.5 29.5 79.242996 29.5 77.556999L 23.5 15.667"></path></g></g></g><g id="g-root-tx_empty_w5uf1k3r18v-stroke" data-item-order="0" transform="translate(110, 458)"></g><g id="g-root-tx_mostlyem_1cvj6af1k3r11e-stroke" data-item-order="0" transform="translate(614, 458)"></g><g id="g-root-tx_booleanv_1q6d7kn1k3r2m8-stroke" data-item-order="0" transform="translate(50, 494)"></g><g id="g-root-tx_fuzzyint_8duvr1k3leyp-stroke" data-item-order="0" transform="translate(614, 242)"></g></g></g></svg>