<?xml version="1.0" encoding="utf-8" standalone="yes"?>
<!DOCTYPE svg PUBLIC "-//W3C//DTD SVG 1.1//EN" "http://www.w3.org/Graphics/SVG/1.1/DTD/svg11.dtd">
<svg width="684" height="600" viewBox="0 0 684 600" style="fill:none;stroke:none;fill-rule:evenodd;clip-rule:evenodd;stroke-linecap:round;stroke-linejoin:round;stroke-miterlimit:1.5;" version="1.1" xmlns="http://www.w3.org/2000/svg" xmlns:xlink="http://www.w3.org/1999/xlink"><style class="text-font-style fontImports" data-font-family="Roboto">@import url('https://fonts.googleapis.com/css2?family=Roboto:wght@400;700&amp;display=block');</style><rect id="" x="0" y="0" width="684" height="600" style="fill: #2c2c2c;"></rect><g id="items" style="isolation: isolate"><g id="blend" style="mix-blend-mode: normal"><g id="g-root-tf_1hforqf1i654w9-fill" data-item-order="-615600"><g id="tf_1hforqf1i654w9-fill" stroke="none" fill="#2c2c2c"><g><path d="M 0 0L 684 0L 684 600L 0 600Z"></path></g></g></g><g id="g-root-cr_0_cr-big_1qapaw71i66kn9-fill" data-item-order="-113625" transform="translate(254, 254)"><g id="cr_0_cr-big_1qapaw71i66kn9-fill" stroke="none" fill="#faeeff"><g><path d="M 10 70C 10.000003 103.137088 36.862918 130.000003 70.000003 130.000003C 103.137088 130.000003 130.000003 103.137088 130.000003 70.000003C 130.000003 36.862918 103.137088 10.000003 70.000003 10.000003C 36.862918 10.000003 10.000003 36.862918 10.000003 70.000003"></path></g></g></g><g id="g-root-sy_5_cu_1hforqf1i66ia6-fill" data-item-order="-113621" transform="translate(177.0557861328125, 139.4403076171875)"><g id="sy_5_cu_1hforqf1i66ia6-fill" stroke="none" fill="#a25fc1"><g><path d="M 89.8887 165.994L 10 140.037C 31.4915 73.9212 84.472 26.839 146.941 10L 146.931 124.543C 121.647 124.544 98.1342 140.653 89.8887 165.994Z"></path></g></g></g><g id="g-root-sy_4_cu_1czv9lz1i66j2f-fill" data-item-order="-113617" transform="translate(147.72625732421875, 260.061279296875)"><g id="sy_4_cu_1czv9lz1i66j2f-fill" stroke="none" fill="#b95ce3"><g><path d="M 140.986015 112.465L 91.611815 180.422C 35.373415 139.552 6.967515 74.6149 10.256515 10L 119.191015 45.4053C 111.378015 69.4515 119.433015 96.7919 140.986015 112.465Z"></path></g></g></g><g id="g-root-sy_3_cu_18k1rhj1i66juo-fill" data-item-order="-113613" transform="translate(211.39907836914062, 362.55621337890625)"><g id="sy_3_cu_18k1rhj1i66juo-fill" stroke="none" fill="#cb68f9"><g><path d="M 147.847 10L 197.221 77.9574C 140.972 118.814 70.436 125.763 10 102.6675L 77.335 10.0058C 97.7901 24.8667 126.281 25.6547 147.847 10Z"></path></g></g></g><g id="g-root-sy_2_cu_18k1rhj1i66jup-fill" data-item-order="-113609" transform="translate(349.287353515625, 269.5260009765625)"><g id="sy_2_cu_18k1rhj1i66jup-fill" stroke="none" fill="#df99ff"><g><path d="M 31.784 35.9574L 111.673 10C 133.147 76.121 117.96 145.352 77.3189 195.694L 10 103.0203C 30.4546 88.1587 40.0083 61.3053 31.784 35.9574Z"></path></g></g></g><g id="g-root-sy_1_cu_zoer8n1i66kne-fill" data-item-order="-113605" transform="translate(314.02569580078125, 170)"><g id="sy_1_cu_zoer8n1i66kne-fill" stroke="none" fill="#f2d6ff"><g><path d="M 10 93.9999L 10 10C 79.5208 10.0088 140.671 45.8471 175.989 100.0549L 67.049 135.441C 59.2355 111.395 36.6487 94.0111 10 93.9999Z"></path></g></g></g><g id="g-root-tx_componen_m97hif1i5sgzx-fill" data-item-order="0" transform="translate(134, 38)"><g id="tx_componen_m97hif1i5sgzx-fill" stroke="none" fill="#f4f4f4"><g><text style="font: bold 25px Roboto, sans-serif; white-space: pre;" font-weight="bold" font-size="25px" font-family="Roboto, sans-serif"><tspan x="12.34" y="43" dominant-baseline="ideographic">Components of Soft Computing</tspan></text></g></g></g><g id="g-root-tx_probabil_8xqz531i5siku-fill" data-item-order="0" transform="translate(86, 122)"><g id="tx_probabil_8xqz531i5siku-fill" stroke="none" fill="#f4f4f4"><g><text style="font: 20px Roboto, sans-serif; white-space: pre;" font-size="20px" font-family="Roboto, sans-serif"><tspan x="17.27" y="34" dominant-baseline="ideographic">Probabilistic </tspan><tspan x="34.27" y="58" dominant-baseline="ideographic">Reasoning</tspan></text></g></g></g><g id="g-root-tx_fuzzylog_18hjyav1i5sgsi-fill" data-item-order="0" transform="translate(422, 146)"><g id="tx_fuzzylog_18hjyav1i5sgsi-fill" stroke="none" fill="#f4f4f4"><g><text style="font: 20px Roboto, sans-serif; white-space: pre;" font-size="20px" font-family="Roboto, sans-serif"><tspan x="12" y="34" dominant-baseline="ideographic">Fuzzy Logic</tspan></text></g></g></g><g id="g-root-ic_3_1cz8siv1i67zm7-fill" data-item-order="0" transform="translate(230.0667724609375, 207.4652099609375)"></g><g id="g-root-ic_uneq_zlwy1z1i5r3f3-fill" data-item-order="0" transform="translate(349.974853515625, 207.495361328125)"></g><g id="g-root-ic_1_zoer8n1i66knf-fill" data-item-order="0" transform="translate(278, 277.99609375)"></g><g id="g-root-tx_evolutio_4hxh0n1i5sjd3-fill" data-item-order="0" transform="translate(14, 326)"><g id="tx_evolutio_4hxh0n1i5sjd3-fill" stroke="none" fill="#f4f4f4"><g><text style="font: 20px Roboto, sans-serif; white-space: pre;" font-size="20px" font-family="Roboto, sans-serif"><tspan x="18.89" y="34" dominant-baseline="ideographic">Evolutionary </tspan><tspan x="12.5" y="58" dominant-baseline="ideographic">Computation</tspan></text></g></g></g><g id="g-root-ic_vase_v8l9471i69c7f-fill" data-item-order="0" transform="translate(192.98431396484375, 321.495361328125)"></g><g id="g-root-ic_1_v6px0n1i5pnnn-fill" data-item-order="0" transform="translate(386.9998779296875, 321.54412841796875)"></g><g id="g-root-tx_neuralne_1lsdzl31i5sidd-fill" data-item-order="0" transform="translate(494, 338)"><g id="tx_neuralne_1lsdzl31i5sidd-fill" stroke="none" fill="#f4f4f4"><g><text style="font: 20px Roboto, sans-serif; white-space: pre;" font-size="20px" font-family="Roboto, sans-serif"><tspan x="12" y="34" dominant-baseline="ideographic">Neural Networks</tspan></text></g></g></g><g id="g-root-ic_dna_dffwiv1i5obv3-fill" data-item-order="0" transform="translate(289.97430419921875, 392.00006103515625)"></g><g id="g-root-tx_genetica_2qfzb1i5sgzk-fill" data-item-order="0" transform="translate(260, 494)"><g id="tx_genetica_2qfzb1i5sgzk-fill" stroke="none" fill="#f4f4f4"><g><text style="font: 20px Roboto, sans-serif; white-space: pre;" font-size="20px" font-family="Roboto, sans-serif"><tspan x="30.12" y="34" dominant-baseline="ideographic">Genetic </tspan><tspan x="15.2" y="58" dominant-baseline="ideographic">Algorithms</tspan></text></g></g></g><g id="g-root-tf_1hforqf1i654w9-stroke" data-item-order="-615600"></g><g id="g-root-cr_0_cr-big_1qapaw71i66kn9-stroke" data-item-order="-113625" transform="translate(254, 254)"><g id="cr_0_cr-big_1qapaw71i66kn9-stroke" fill="none" stroke-linecap="round" stroke-linejoin="round" stroke-miterlimit="4" stroke="#2c2c2c" stroke-width="2"><g><path d="M 10 70C 10.000003 103.137088 36.862918 130.000003 70.000003 130.000003C 103.137088 130.000003 130.000003 103.137088 130.000003 70.000003C 130.000003 36.862918 103.137088 10.000003 70.000003 10.000003C 36.862918 10.000003 10.000003 36.862918 10.000003 70.000003"></path></g></g></g><g id="g-root-sy_5_cu_1hforqf1i66ia6-stroke" data-item-order="-113621" transform="translate(177.0557861328125, 139.4403076171875)"><g id="sy_5_cu_1hforqf1i66ia6-stroke" fill="none" stroke-linecap="round" stroke-linejoin="round" stroke-miterlimit="4" stroke="#2c2c2c" stroke-width="2"><g><path d="M 89.8887 165.9942L 10 140.0368C 31.4915 73.9212 84.472 26.839 146.9408 10L 146.9309 124.5434C 121.6473 124.5439 98.1342 140.6532 89.8887 165.9942Z"></path></g></g></g><g id="g-root-sy_4_cu_1czv9lz1i66j2f-stroke" data-item-order="-113617" transform="translate(147.72625732421875, 260.061279296875)"><g id="sy_4_cu_1czv9lz1i66j2f-stroke" fill="none" stroke-linecap="round" stroke-linejoin="round" stroke-miterlimit="4" stroke="#2c2c2c" stroke-width="2"><g><path d="M 140.985715 112.4647L 91.611815 180.422C 35.373415 139.5516 6.967515 74.6149 10.256515 10L 119.190715 45.4053C 111.378115 69.4515 119.433015 96.7919 140.985715 112.4647Z"></path></g></g></g><g id="g-root-sy_3_cu_18k1rhj1i66juo-stroke" data-item-order="-113613" transform="translate(211.39907836914062, 362.55621337890625)"><g id="sy_3_cu_18k1rhj1i66juo-stroke" fill="none" stroke-linecap="round" stroke-linejoin="round" stroke-miterlimit="4" stroke="#2c2c2c" stroke-width="2"><g><path d="M 147.8472 10L 197.2211 77.9574C 140.9724 118.8135 70.436 125.7627 10 102.6675L 77.335 10.0058C 97.7901 24.8667 126.2814 25.6547 147.8472 10Z"></path></g></g></g><g id="g-root-sy_2_cu_18k1rhj1i66jup-stroke" data-item-order="-113609" transform="translate(349.287353515625, 269.5260009765625)"><g id="sy_2_cu_18k1rhj1i66jup-stroke" fill="none" stroke-linecap="round" stroke-linejoin="round" stroke-miterlimit="4" stroke="#2c2c2c" stroke-width="2"><g><path d="M 31.784 35.9574L 111.6727 10C 133.1474 76.121 117.9595 145.3525 77.3189 195.6938L 10 103.0203C 30.4546 88.1587 40.0083 61.3053 31.784 35.9574Z"></path></g></g></g><g id="g-root-sy_1_cu_zoer8n1i66kne-stroke" data-item-order="-113605" transform="translate(314.02569580078125, 170)"><g id="sy_1_cu_zoer8n1i66kne-stroke" fill="none" stroke-linecap="round" stroke-linejoin="round" stroke-miterlimit="4" stroke="#2c2c2c" stroke-width="2"><g><path d="M 10 93.9999L 10 10C 79.5208 10.0088 140.6706 45.8471 175.9893 100.0549L 67.049 135.4413C 59.2355 111.3954 36.6487 94.0111 10 93.9999Z"></path></g></g></g><g id="g-root-tx_componen_m97hif1i5sgzx-stroke" data-item-order="0" transform="translate(134, 38)"></g><g id="g-root-tx_probabil_8xqz531i5siku-stroke" data-item-order="0" transform="translate(86, 122)"></g><g id="g-root-tx_fuzzylog_18hjyav1i5sgsi-stroke" data-item-order="0" transform="translate(422, 146)"></g><g id="g-root-ic_3_1cz8siv1i67zm7-stroke" data-item-order="0" transform="translate(230.0667724609375, 207.4652099609375)"><g id="ic_3_1cz8siv1i67zm7-stroke" fill="none" stroke-linecap="round" stroke-linejoin="round" stroke-miterlimit="4" stroke="#2c2c2c" stroke-width="2"><g><path d="M 36.472 34C 36.472309 32.634529 35.365467 31.527435 34 31.527435C 32.634529 31.527435 31.527687 32.634529 31.527998 34C 31.527687 35.365467 32.634529 36.472561 34 36.472561C 35.365467 36.472561 36.472309 35.365467 36.472 34M 26.052 23.708C 26.052311 22.342531 24.945467 21.235435 23.579998 21.235435C 22.214531 21.235435 21.107689 22.342531 21.107998 23.708C 21.107689 25.073467 22.214531 26.180563 23.579998 26.180563C 24.945467 26.180563 26.052311 25.073467 26.051998 23.708M 46.894001 44.290001C 46.89431 42.92453 45.787464 41.817436 44.421997 41.817436C 43.05653 41.817436 41.949684 42.92453 41.949997 44.289997C 41.949684 45.655464 43.05653 46.762562 44.421997 46.762562C 45.787464 46.762562 46.89431 45.655464 46.893997 44.289997M 56 48C 56 52.418201 52.418201 56 48 56L 20 56C 15.58172 56 11.999998 52.418201 11.999998 48L 12 20.000519C 12 15.58224 15.58172 12.00052 20 12.00054L 48 12.00054C 52.418201 12.00054 56 15.58226 56 20.00054L 56 48Z"></path></g></g></g><g id="g-root-ic_uneq_zlwy1z1i5r3f3-stroke" data-item-order="0" transform="translate(349.974853515625, 207.495361328125)"><g id="ic_uneq_zlwy1z1i5r3f3-stroke" fill="none" stroke-linecap="round" stroke-linejoin="round" stroke-miterlimit="4" stroke="#2c2c2c" stroke-width="2"><g><path d="M 34 23.364L 34 54.363998M 29 54.363998L 39 54.363998M 12 42.363998L 19 27.436001L 26 42.363998M 31 20.364C 31 22.020855 32.343147 23.364 34 23.364C 35.656853 23.364 37 22.020855 37 20.364C 37 18.707146 35.656853 17.364 34 17.364C 32.343147 17.364 31 18.707146 31 20.364ZM 19 49.363998C 20.870407 49.410587 22.678082 48.688061 24.001072 47.36507C 25.32406 46.042084 26.046587 44.234409 26 42.363998L 12 42.363998C 11.953412 44.234409 12.67594 46.042084 13.998928 47.36507C 15.321917 48.688061 17.129591 49.410587 19 49.363998ZM 56 30.364L 49 15.298L 42 30.364M 49 37.363998C 47.129589 37.410587 45.321915 36.688061 43.998928 35.36507C 42.675938 34.042084 41.953411 32.234406 42 30.363998L 56 30.364C 56.046585 32.234406 55.324059 34.042084 54.001072 35.36507C 52.678082 36.688061 50.870407 37.410587 49 37.363998ZM 36.987999 20.156L 53.110001 13.636M 14.892 29.094L 31.73 22.282"></path></g></g></g><g id="g-root-ic_1_zoer8n1i66knf-stroke" data-item-order="0" transform="translate(278, 277.99609375)"><g id="ic_1_zoer8n1i66knf-stroke" fill="none" stroke-linecap="round" stroke-linejoin="round" stroke-miterlimit="4" stroke="#2c2c2c" stroke-width="2"><g><path d="M 27.849998 71.083C 31.030655 70.553589 33.716057 68.426804 34.959999 65.451996M 17.263 35.638C 23.400017 36.714172 28.672504 40.616302 31.494999 46.171001M 27.348999 40.687L 32.728001 36.652M 40 12.019C 39.942333 15.026397 39.399342 18.004742 38.392002 20.839001M 34 23.5C 34 25.156855 35.343143 26.5 37 26.5C 38.656857 26.5 40 25.156855 40 23.5C 40 21.843145 38.656857 20.5 37 20.5C 35.343143 20.5 34 21.843145 34 23.5ZM 52 29.5C 52 31.156855 53.343143 32.5 55 32.5C 56.656857 32.5 58 31.156855 58 29.5C 58 27.843145 56.656857 26.5 55 26.5C 53.343143 26.5 52 27.843145 52 29.5ZM 62.5 41.5C 62.5 43.156857 63.843147 44.5 65.5 44.5C 67.156853 44.5 68.5 43.156857 68.5 41.5C 68.5 39.843143 67.156853 38.5 65.5 38.5C 63.843147 38.5 62.5 39.843143 62.5 41.5ZM 52 52C 52 53.656857 53.343143 55 55 55C 56.656857 55 58 53.656857 58 52C 58 50.343143 56.656857 49 55 49C 53.343143 49 52 50.343143 52 52ZM 32.5 35.5C 32.5 37.156857 33.843147 38.5 35.5 38.5C 37.156857 38.5 38.5 37.156857 38.5 35.5C 38.5 33.843147 37.156857 32.5 35.5 32.5C 33.843147 32.5 32.5 33.843147 32.5 35.5ZM 29.5 49C 29.5 50.656857 30.843145 52 32.5 52C 34.156857 52 35.5 50.656857 35.5 49C 35.5 47.343143 34.156857 46 32.5 46C 30.843145 46 29.5 47.343143 29.5 49ZM 80.5 46C 80.512016 41.778744 78.329506 37.854546 74.737 35.638C 74.9403 34.752205 75.045937 33.846802 75.052002 32.938C 75.112106 26.699877 70.364319 21.464764 64.149994 20.917C 64.211967 18.460598 63.287228 16.081762 61.582458 14.312159C 59.877686 12.542555 57.535004 11.529713 55.077999 11.5C 51.19334 11.722404 47.727177 14.013325 46 17.5C 44.272823 14.013325 40.80666 11.722404 36.922001 11.5C 34.464996 11.529713 32.122314 12.542555 30.417543 14.312159C 28.712769 16.081762 27.788029 18.460598 27.849998 20.917C 21.633362 21.464937 16.884737 26.703581 16.948 32.944C 16.949144 33.852253 17.049744 34.757648 17.247999 35.643997C 13.664934 37.869446 11.485849 41.788063 11.485849 46.006001C 11.485849 50.223934 13.664934 54.142551 17.247999 56.367996C 17.049744 57.254349 16.949144 58.159748 16.948 59.067997C 16.891041 65.303825 21.638002 70.535416 27.849998 71.083C 27.788029 73.539398 28.712769 75.918236 30.417543 77.687836C 32.122314 79.457443 34.464996 80.470284 36.922001 80.5C 40.504494 80.586853 43.89994 78.903717 45.999996 75.999992C 48.100056 78.903717 51.495502 80.586853 55.077995 80.499992C 57.535004 80.470284 59.877686 79.457443 61.582458 77.687836C 63.287228 75.918236 64.211967 73.539398 64.149994 71.083C 70.366638 70.535065 75.115265 65.296417 75.052002 59.056C 75.045937 58.147194 74.9403 57.241791 74.737 56.355999C 78.327682 54.140575 80.509926 50.219124 80.5 46ZM 46 17.5L 46 52M 46 63.874001L 46 76M 73.518997 26.989L 65.199997 31.153C 62.769722 32.369732 59.914307 32.398506 57.459999 31.230999M 55 49C 55.889565 45.287899 58.787903 42.389565 62.500008 41.500004M 64.149994 71.083C 63.321999 68.199997 61.908997 65.983002 59.5 65.5M 32.5 62.5C 32.5 64.156853 33.843147 65.5 35.5 65.5C 37.156857 65.5 38.5 64.156853 38.5 62.5C 38.5 60.843147 37.156857 59.5 35.5 59.5C 33.843147 59.5 32.5 60.843147 32.5 62.5ZM 53.5 65.5C 53.5 67.156853 54.843143 68.5 56.5 68.5C 58.156853 68.5 59.5 67.156853 59.5 65.5C 59.5 63.843147 58.156853 62.5 56.5 62.5C 54.843143 62.5 53.5 63.843147 53.5 65.5Z"></path></g></g></g><g id="g-root-tx_evolutio_4hxh0n1i5sjd3-stroke" data-item-order="0" transform="translate(14, 326)"></g><g id="g-root-ic_vase_v8l9471i69c7f-stroke" data-item-order="0" transform="translate(192.98431396484375, 321.495361328125)"><g id="ic_vase_v8l9471i69c7f-stroke" fill="none" stroke-linecap="round" stroke-linejoin="round" stroke-miterlimit="4" stroke="#2c2c2c" stroke-width="2"><g><path d="M 29.388 39C 29.047298 38.999886 28.729979 39.173241 28.546 39.459999C 26.62134 42.094471 25.417664 45.185696 25.053999 48.427998C 25.054001 54.110001 28.188 57 32.054001 57C 35.919998 57 39.054001 54.110001 39.054001 48.428001C 38.68956 45.185551 37.485207 42.094357 35.559998 39.459999C 35.376022 39.173241 35.058701 38.999886 34.718002 39ZM 32.052002 35.998001L 25.908001 16.875999M 22.054001 14C 22.054001 15.656855 23.397146 17 25.054001 17C 26.710855 17 28.054001 15.656855 28.054001 14C 28.054001 12.343145 26.710855 11 25.054001 11C 23.397146 11 22.054001 12.343145 22.054001 14ZM 10.946 20C 10.946 21.656855 12.289146 23 13.946 23C 15.602854 23 16.945999 21.656855 16.945999 20C 16.945999 18.343147 15.602854 17 13.946 17C 12.289146 17 10.946 18.343147 10.946 20ZM 13.946 36C 13.946 37.656853 15.289146 39 16.945999 39C 18.602856 39 19.945999 37.656853 19.945999 36C 19.945999 34.343147 18.602856 33 16.945999 33C 15.289146 33 13.946 34.343147 13.946 36ZM 32.054001 18C 32.054001 19.656855 33.397148 21 35.054001 21C 36.710854 21 38.054001 19.656855 38.054001 18C 38.054001 16.343145 36.710854 15 35.054001 15C 33.397148 15 32.054001 16.343145 32.054001 18ZM 43.945999 15C 43.946003 16.656855 45.289146 18 46.946003 18C 48.602856 18 49.946003 16.656855 49.946003 15C 49.946003 13.343145 48.602856 12 46.946003 12C 45.289146 12 43.946003 13.343145 43.946003 15ZM 51.054001 26C 51.054001 27.656855 52.397148 29 54.054001 29C 55.710857 29 57.054001 27.656855 57.054001 26C 57.054001 24.343147 55.710857 23 54.054001 23C 52.397148 23 51.054001 24.343147 51.054001 26ZM 41.945999 34C 41.945999 35.656853 43.289146 37 44.945999 37C 46.602856 37 47.945999 35.656853 47.945999 34C 47.945999 32.343147 46.602856 31 44.945999 31C 43.289146 31 41.945999 32.343147 41.945999 34ZM 30.445999 31L 25.889999 31C 24.697754 30.99971 23.537624 31.386421 22.584 32.101997L 19.496 34.417999M 16.948 20L 18.054001 20C 19.677578 19.995045 21.25811 20.521891 22.554001 21.5C 23.514027 22.460232 24.81617 22.999794 26.174 23L 27.875999 23M 29.129999 26.906L 34.208 20.813999M 32.054001 36L 45.374001 17.556M 41.655998 22.702L 44.584 24.902C 45.538124 25.61615 46.698208 26.001442 47.889999 26L 51.051998 26M 37.416 28.576L 42.652 32.066002"></path></g></g></g><g id="g-root-ic_1_v6px0n1i5pnnn-stroke" data-item-order="0" transform="translate(386.9998779296875, 321.54412841796875)"><g id="ic_1_v6px0n1i5pnnn-stroke" fill="none" stroke-linecap="round" stroke-linejoin="round" stroke-miterlimit="4" stroke="#2c2c2c" stroke-width="2"><g><path d="M 16.348 45.931999L 12 57M 18 57L 19.785999 47M 51.652 45.931999L 56 57M 50 57L 48.214001 47M 38.664001 34.732002L 45.880001 40.503998M 22.119999 40.503998L 29.334 34.732002M 18.622 39.035999L 17.66 28.938M 30.195999 48.223999L 22.614 44.686001M 45.383999 44.688L 37.804001 48.223999M 50.334 29L 49.377998 39.026001M 37.697998 16.524L 47.414001 20.524M 20.584 20.524L 30.304001 16.521999M 15 43C 15 45.209141 16.790861 47 19 47C 21.209139 47 23 45.209141 23 43C 23 40.790863 21.209139 39 19 39C 16.790861 39 15 40.790863 15 43ZM 30 15C 30 17.209139 31.790861 19 34 19C 36.209137 19 38 17.209139 38 15C 38 12.790861 36.209137 11 34 11C 31.790861 11 30 12.790861 30 15ZM 12 24C 12 26.761423 14.238577 29 17 29C 19.761425 29 22 26.761423 22 24C 22 21.238577 19.761425 19 17 19C 14.238577 19 12 21.238577 12 24ZM 45 43C 45 45.209141 46.790859 47 49 47C 51.209141 47 53 45.209141 53 43C 53 40.790863 51.209141 39 49 39C 46.790859 39 45 40.790863 45 43ZM 46 24C 46 26.761423 48.238575 29 51 29C 53.761425 29 56 26.761423 56 24C 56 21.238577 53.761425 19 51 19C 48.238575 19 46 21.238577 46 24ZM 28.43 28.771999L 19 25M 49 25L 39.566002 28.774M 34 19L 34 25M 36.214001 36.576L 39 57M 29 57L 31.785999 36.576M 28 31C 28 34.313709 30.686293 37 34 37C 37.313709 37 40 34.313709 40 31C 40 27.686293 37.313709 25 34 25C 30.686293 25 28 27.686293 28 31Z"></path></g></g></g><g id="g-root-tx_neuralne_1lsdzl31i5sidd-stroke" data-item-order="0" transform="translate(494, 338)"></g><g id="g-root-ic_dna_dffwiv1i5obv3-stroke" data-item-order="0" transform="translate(289.97430419921875, 392.00006103515625)"><g id="ic_dna_dffwiv1i5obv3-stroke" fill="none" stroke-linecap="round" stroke-linejoin="round" stroke-miterlimit="4" stroke="#2c2c2c" stroke-width="2"><g><path d="M 49.222 24.584C 51.58894 24.830101 53.980938 24.542377 56.222 23.742001M 23.736 56.262001C 25.105358 52.472458 24.98527 48.304413 23.4 44.599998C 20.890854 38.535637 22.283451 31.556856 26.927999 26.919998C 30.441261 23.424141 35.347008 21.704592 40.274002 22.242001M 28.274 45.799999C 33.024963 46.155941 37.696121 44.429802 41.074001 41.07C 45.718395 36.430515 47.110107 29.449856 44.600002 23.384001C 43.016369 19.685146 42.894154 15.523408 44.257999 11.738M 11.768 44.242001C 14.154075 43.384998 16.710426 43.11071 19.223999 43.441998M 35.211998 22.476L 45.515999 32.779999M 43.641998 13.936L 54.056 24.348M 13.944 43.633999L 24.358 54.048M 29.25 25L 42.993999 38.742001M 22.484001 35.202L 32.788002 45.507999M 25.006001 29.242001L 38.75 42.984001"></path></g></g></g><g id="g-root-tx_genetica_2qfzb1i5sgzk-stroke" data-item-order="0" transform="translate(260, 494)"></g></g></g></svg>