<?xml version="1.0" encoding="utf-8" standalone="yes"?>
<!DOCTYPE svg PUBLIC "-//W3C//DTD SVG 1.1//EN" "http://www.w3.org/Graphics/SVG/1.1/DTD/svg11.dtd">
<svg width="816" height="708" viewBox="0 0 816 708" style="fill:none;stroke:none;fill-rule:evenodd;clip-rule:evenodd;stroke-linecap:round;stroke-linejoin:round;stroke-miterlimit:1.5;" version="1.1" xmlns="http://www.w3.org/2000/svg" xmlns:xlink="http://www.w3.org/1999/xlink"><style class="text-font-style fontImports" data-font-family="Roboto">@import url('https://fonts.googleapis.com/css2?family=Roboto:wght@400;700&amp;display=block');</style><rect id="" x="0" y="0" width="816" height="708" style="fill: #2c2c2c;"></rect><g id="items" style="isolation: isolate"><g id="blend" style="mix-blend-mode: normal"><g id="g-root-tf_4hc1x31lht98p-fill" data-item-order="-866592"><g id="tf_4hc1x31lht98p-fill" stroke="none" fill="#2c2c2c"><g><path d="M 0 0L 816 0L 816 708L 0 708Z"></path></g></g></g><g id="g-root-cp_0_g-0_1ijsn1lhuney-fill" data-item-order="-469981" transform="translate(230, 206)"></g><g id="g-root-cp_1_g-1_1umt3nb1lhuo04-fill" data-item-order="-469978" transform="translate(230, 206)"></g><g id="g-root-cp_3_g-3_1lr63ef1lhuosu-fill" data-item-order="-469974" transform="translate(230, 398)"></g><g id="g-root-cp_2_g-2_1q6zliv1lhuosg-fill" data-item-order="-469970" transform="translate(422, 206)"></g><g id="g-root-cp_4_g-4_1hbz2d31lhumfe-fill" data-item-order="-469966" transform="translate(422, 398)"></g><g id="g-root-tx_62manwit_140ijzr1lhuo0d-fill" data-item-order="0" transform="translate(50, 206)"><g id="tx_62manwit_140ijzr1lhuo0d-fill" stroke="none" fill="#a6da37"><g><text style="font: bold 20px Roboto, sans-serif; white-space: pre;" font-weight="bold" font-size="20px" font-family="Roboto, sans-serif"><tspan x="20.33" y="34" dominant-baseline="ideographic">6'2" man with </tspan><tspan x="60.05" y="58" dominant-baseline="ideographic">Tall (1.0)</tspan></text></g></g></g><g id="g-root-tx_2_1q8v0s71lhunsy-fill" data-item-order="0" transform="translate(614, 146)"><g id="tx_2_1q8v0s71lhunsy-fill" stroke="none" fill="#43dd93"><g><text style="font: bold 30px Roboto, sans-serif; white-space: pre;" font-weight="bold" font-size="30px" font-family="Roboto, sans-serif"><tspan x="13.39" y="46" dominant-baseline="ideographic">2</tspan></text></g></g></g><g id="g-root-tx_62manwit_4j7h6f1lhumf4-fill" data-item-order="0" transform="translate(614, 206)"><g id="tx_62manwit_4j7h6f1lhumf4-fill" stroke="none" fill="#43dd93"><g><text style="font: bold 20px Roboto, sans-serif; white-space: pre;" font-weight="bold" font-size="20px" font-family="Roboto, sans-serif"><tspan x="12" y="34" dominant-baseline="ideographic">6'2" man with </tspan><tspan x="12" y="58" dominant-baseline="ideographic">0.95 tallness</tspan></text></g></g></g><g id="g-root-ic_3_1hd80jb1lhuoln-fill" data-item-order="0" transform="translate(266, 242)"></g><g id="g-root-ic_1_1hd80jb1lhw1zg-fill" data-item-order="0" transform="translate(458, 242)"></g><g id="g-root-tx_clearcut_m9v0l31lhun7q-fill" data-item-order="0" transform="translate(62, 266)"><g id="tx_clearcut_m9v0l31lhun7q-fill" stroke="none" fill="#f4f4f4"><g><text style="font: 15px Roboto, sans-serif; white-space: pre;" font-size="15px" font-family="Roboto, sans-serif"><tspan x="12.41" y="31" dominant-baseline="ideographic">Clear-cut tallness </tspan><tspan x="22.94" y="49" dominant-baseline="ideographic">defined by crisp </tspan><tspan x="91.91" y="67" dominant-baseline="ideographic">logic.</tspan></text></g></g></g><g id="g-root-tx_vividrep_1uooiwn1lhun0p-fill" data-item-order="0" transform="translate(614, 266)"><g id="tx_vividrep_1uooiwn1lhun0p-fill" stroke="none" fill="#f4f4f4"><g><text style="font: 15px Roboto, sans-serif; white-space: pre;" font-size="15px" font-family="Roboto, sans-serif"><tspan x="12" y="31" dominant-baseline="ideographic">Vivid representation </tspan><tspan x="12" y="49" dominant-baseline="ideographic">of high tallness in </tspan><tspan x="12" y="67" dominant-baseline="ideographic">fuzzy logic.</tspan></text></g></g></g><g id="g-root-tx_3_250vr1li0b29-fill" data-item-order="0" transform="translate(134, 410)"><g id="tx_3_250vr1li0b29-fill" stroke="none" fill="#fb6762"><g><text style="font: bold 30px Roboto, sans-serif; white-space: pre;" font-weight="bold" font-size="30px" font-family="Roboto, sans-serif"><tspan x="13.39" y="46" dominant-baseline="ideographic">3</tspan></text></g></g></g><g id="g-root-tx_1_de80c71lhuo0f-fill" data-item-order="0" transform="translate(134, 146)"><g id="tx_1_de80c71lhuo0f-fill" stroke="none" fill="#a6da37"><g><text style="font: bold 30px Roboto, sans-serif; white-space: pre;" font-weight="bold" font-size="30px" font-family="Roboto, sans-serif"><tspan x="13.39" y="46" dominant-baseline="ideographic">1</tspan></text></g></g></g><g id="g-root-tx_crispvsf_1cw5k8n1lhun7o-fill" data-item-order="0" transform="translate(158, 38)"><g id="tx_crispvsf_1cw5k8n1lhun7o-fill" stroke="none" fill="#f4f4f4"><g><text style="font: bold 25px Roboto, sans-serif; white-space: pre;" font-weight="bold" font-size="25px" font-family="Roboto, sans-serif"><tspan x="15.98" y="43" dominant-baseline="ideographic">Crisp vs. Fuzzy Logic in Height Evaluation</tspan></text></g></g></g><g id="g-root-tx_subtleta_1lsf1kn1li09ab-fill" data-item-order="0" transform="translate(614, 530)"><g id="tx_subtleta_1lsf1kn1li09ab-fill" stroke="none" fill="#f4f4f4"><g><text style="font: 15px Roboto, sans-serif; white-space: pre;" font-size="15px" font-family="Roboto, sans-serif"><tspan x="12" y="31" dominant-baseline="ideographic">Subtle tallness with </tspan><tspan x="12" y="49" dominant-baseline="ideographic">low membership </tspan><tspan x="12" y="67" dominant-baseline="ideographic">value in fuzzy logic.</tspan></text></g></g></g><g id="g-root-ic_90_qqxgvr1lhxfd9-fill" data-item-order="0" transform="translate(266, 434)"></g><g id="g-root-ic_sele_1uo21tj1lhyuby-fill" data-item-order="0" transform="translate(458, 434)"></g><g id="g-root-tx_511manwi_htf1dj1li08p3-fill" data-item-order="0" transform="translate(38, 470)"><g id="tx_511manwi_htf1dj1li08p3-fill" stroke="none" fill="#fb6762"><g><text style="font: bold 20px Roboto, sans-serif; white-space: pre;" font-weight="bold" font-size="20px" font-family="Roboto, sans-serif"><tspan x="20.84" y="34" dominant-baseline="ideographic">5'11" man with </tspan><tspan x="35.42" y="58" dominant-baseline="ideographic">Not Tall (0.0)</tspan></text></g></g></g><g id="g-root-tx_58manwit_1q88jp31li08i2-fill" data-item-order="0" transform="translate(614, 470)"><g id="tx_58manwit_1q88jp31li08i2-fill" stroke="none" fill="#f366bb"><g><text style="font: bold 20px Roboto, sans-serif; white-space: pre;" font-weight="bold" font-size="20px" font-family="Roboto, sans-serif"><tspan x="12" y="34" dominant-baseline="ideographic">5'8" man with </tspan><tspan x="12" y="58" dominant-baseline="ideographic">0.3 tallness</tspan></text></g></g></g><g id="g-root-tx_distinct_4hyj071li0aa0-fill" data-item-order="0" transform="translate(74, 530)"><g id="tx_distinct_4hyj071li0aa0-fill" stroke="none" fill="#f4f4f4"><g><text style="font: 15px Roboto, sans-serif; white-space: pre;" font-size="15px" font-family="Roboto, sans-serif"><tspan x="16.69" y="31" dominant-baseline="ideographic">Distinct lack of </tspan><tspan x="11.8" y="49" dominant-baseline="ideographic">tallness in crisp </tspan><tspan x="79.91" y="67" dominant-baseline="ideographic">logic.</tspan></text></g></g></g><g id="g-root-tx_4_1cws1br1li0a30-fill" data-item-order="0" transform="translate(614, 410)"><g id="tx_4_1cws1br1li0a30-fill" stroke="none" fill="#f366bb"><g><text style="font: bold 30px Roboto, sans-serif; white-space: pre;" font-weight="bold" font-size="30px" font-family="Roboto, sans-serif"><tspan x="13.39" y="46" dominant-baseline="ideographic">4</tspan></text></g></g></g><g id="g-root-tf_4hc1x31lht98p-stroke" data-item-order="-866592"></g><g id="g-root-cp_0_g-0_1ijsn1lhuney-stroke" data-item-order="-469981" transform="translate(230, 206)"><g id="cp_0_g-0_1ijsn1lhuney-stroke" fill="none" stroke-linecap="round" stroke-linejoin="round" stroke-miterlimit="4" stroke="#d3d3d3" stroke-width="2"><g><path d="M 178 10L 178 346M 10 177.9999L 346 178"></path></g></g></g><g id="g-root-cp_1_g-1_1umt3nb1lhuo04-stroke" data-item-order="-469978" transform="translate(230, 206)"><g id="cp_1_g-1_1umt3nb1lhuo04-stroke" fill="none" stroke-linecap="round" stroke-linejoin="round" stroke-miterlimit="4" stroke="#a6da37" stroke-width="2"><g><path d="M 141.7804 122.1418C 149.4968 110.673 154 96.8624 154 82C 154 42.2355 121.7645 10 82 10C 42.2355 10 10 42.2355 10 82C 10 121.7645 42.2355 154 82 154C 96.3009 154 109.628 149.8306 120.8321 142.6411L 154 154L 141.7804 122.1418Z"></path></g></g></g><g id="g-root-cp_3_g-3_1lr63ef1lhuosu-stroke" data-item-order="-469974" transform="translate(230, 398)"><g id="cp_3_g-3_1lr63ef1lhuosu-stroke" fill="none" stroke-linecap="round" stroke-linejoin="round" stroke-miterlimit="4" stroke="#fb6762" stroke-width="2"><g><path d="M 141.7804 41.8582C 149.4968 53.327 154 67.1376 154 82C 154 121.7645 121.7645 154 82 154C 42.2355 154 10 121.7645 10 82C 10 42.2355 42.2355 10 82 10C 96.3009 10 109.628 14.1694 120.8321 21.3589L 154 10L 141.7804 41.8582Z"></path></g></g></g><g id="g-root-cp_2_g-2_1q6zliv1lhuosg-stroke" data-item-order="-469970" transform="translate(422, 206)"><g id="cp_2_g-2_1q6zliv1lhuosg-stroke" fill="none" stroke-linecap="round" stroke-linejoin="round" stroke-miterlimit="4" stroke="#43dd93" stroke-width="2"><g><path d="M 22.2196 122.1418C 14.5032 110.673 10 96.8624 10 82C 10 42.2355 42.2355 10 82 10C 121.7645 10 154 42.2355 154 82C 154 121.7645 121.7645 154 82 154C 67.6991 154 54.372 149.8306 43.1679 142.6411L 10 154L 22.2196 122.1418Z"></path></g></g></g><g id="g-root-cp_4_g-4_1hbz2d31lhumfe-stroke" data-item-order="-469966" transform="translate(422, 398)"><g id="cp_4_g-4_1hbz2d31lhumfe-stroke" fill="none" stroke-linecap="round" stroke-linejoin="round" stroke-miterlimit="4" stroke="#f366bb" stroke-width="2"><g><path d="M 22.2196 41.8582C 14.5032 53.327 10 67.1376 10 82C 10 121.7645 42.2355 154 82 154C 121.7645 154 154 121.7645 154 82C 154 42.2355 121.7645 10 82 10C 67.6991 10 54.372 14.1694 43.1679 21.3589L 10 10L 22.2196 41.8582Z"></path></g></g></g><g id="g-root-tx_62manwit_140ijzr1lhuo0d-stroke" data-item-order="0" transform="translate(50, 206)"></g><g id="g-root-tx_2_1q8v0s71lhunsy-stroke" data-item-order="0" transform="translate(614, 146)"></g><g id="g-root-tx_62manwit_4j7h6f1lhumf4-stroke" data-item-order="0" transform="translate(614, 206)"></g><g id="g-root-ic_3_1hd80jb1lhuoln-stroke" data-item-order="0" transform="translate(266, 242)"><g id="ic_3_1hd80jb1lhuoln-stroke" fill="none" stroke-linecap="round" stroke-linejoin="round" stroke-miterlimit="4" stroke="#a6da37" stroke-width="2"><g><path d="M 41.5 49C 42.618053 49.999523 44.07473 50.535854 45.573997 50.5L 46.426003 50.5C 47.925369 50.536461 49.382263 50.00005 50.5 49M 43 37C 42.35257 35.985649 41.199936 35.409336 40 35.5C 38.80006 35.409336 37.64743 35.985649 37 37M 55 37C 54.35257 35.985649 53.199936 35.409336 52 35.5C 50.80006 35.409336 49.64743 35.985649 49 37M 72.711998 66.264999L 58 61.326996M 10 10M 34 61.326996L 19.299999 66.264999C 14.611372 68.016823 11.502501 72.494797 11.5 77.5L 11.5 80.5M 50.439999 65.5C 50.440002 67.985283 48.425285 70 45.940002 70C 43.45472 70 41.440002 67.985283 41.440002 65.5M 10 10M 41.5 80.5L 44.560001 69.783997M 10 10M 50.5 80.5L 47.428001 69.748001M 27.721001 33.813999C 27.775002 34.392998 27.849998 34.957001 27.940001 35.5C 25.318001 36.811001 26.139999 42.699997 29.377001 44.167C 30.288158 44.57933 30.933926 45.418602 31.098999 46.404999C 32.428001 54.337002 41.764 59.5 45.939999 59.5C 50.115997 59.5 59.439999 54.337002 60.780998 46.404999C 60.946075 45.418602 61.591843 44.57933 62.502998 44.167C 65.746002 42.694 66.559006 36.811001 63.939999 35.5C 64.031998 34.942001 64.106003 34.363998 64.162003 33.765999M 60.055 17.68C 56.614498 13.474069 51.364159 11.175302 45.940002 11.5C 40.527237 11.171533 35.284706 13.455936 31.84 17.644001M 10 10M 29.706999 33.015999L 27.607 33.853001C 26.683754 34.219547 25.638931 34.105324 24.81669 33.547951C 23.99445 32.990585 23.501419 32.062347 23.5 31.069L 23.5 21.610001C 23.500036 20.233963 24.436207 19.034378 25.771 18.700001L 30.198999 17.593C 31.260899 17.327959 32.382866 17.662243 33.126549 18.465244C 33.870232 19.268246 34.117596 20.412521 33.771999 21.451L 31.441 31.18C 31.161291 32.017323 30.526985 32.688942 29.706999 33.015999ZM 10 10M 62.292999 33.015999L 64.393005 33.853001C 65.316246 34.219547 66.361069 34.105324 67.183311 33.547951C 68.005547 32.990585 68.498581 32.062347 68.5 31.069L 68.5 21.610001C 68.499969 20.233963 67.563797 19.034378 66.229004 18.700001L 61.801003 17.593C 60.739105 17.327959 59.617134 17.662243 58.873451 18.465244C 58.129768 19.268246 57.882404 20.412521 58.228001 21.451L 60.559002 31.18C 60.838707 32.017323 61.473019 32.688942 62.292999 33.015999ZM 10 10M 43 20.5L 49 20.5M 10 10M 43 26.5L 49 26.5M 68.5 53.5C 68.5 50.186291 71.186287 47.5 74.5 47.5C 77.813713 47.5 80.5 50.186291 80.5 53.5L 80.5 80.5"></path></g></g></g><g id="g-root-ic_1_1hd80jb1lhw1zg-stroke" data-item-order="0" transform="translate(458, 242)"><g id="ic_1_1hd80jb1lhw1zg-stroke" fill="none" stroke-linecap="round" stroke-linejoin="round" stroke-miterlimit="4" stroke="#43dd93" stroke-width="2"><g><path d="M 41.5 49C 42.618053 49.999523 44.07473 50.535854 45.573997 50.5L 46.426003 50.5C 47.925369 50.536461 49.382263 50.00005 50.5 49M 43 37C 42.35257 35.985649 41.199936 35.409336 40 35.5C 38.80006 35.409336 37.64743 35.985649 37 37M 55 37C 54.35257 35.985649 53.199936 35.409336 52 35.5C 50.80006 35.409336 49.64743 35.985649 49 37M 10 10M 34 61.326996L 19.299999 66.264999C 14.611372 68.016823 11.502501 72.494797 11.5 77.5L 11.5 80.5M 10 10M 58 61.326996L 72.699997 66.264999C 77.388626 68.016823 80.497498 72.494797 80.5 77.5L 80.5 80.5M 50.439999 65.5C 50.440002 67.985283 48.425285 70 45.940002 70C 43.45472 70 41.440002 67.985283 41.440002 65.5M 10 10M 41.5 80.5L 44.560001 69.783997M 10 10M 50.5 80.5L 47.428001 69.748001M 10 10M 43 20.5L 49 20.5M 10 10M 44.5 26.5L 47.5 26.5M 37 23.5C 36.998577 19.888611 34.423649 16.79104 30.87332 16.129761C 27.322989 15.468483 23.805525 17.431295 22.504002 20.800001C 18.173464 21.858465 14.983395 25.53611 14.547358 29.97275C 14.11132 34.409389 16.524385 38.637714 20.566 40.519001C 20.283487 42.660324 20.937855 44.819496 22.361568 46.443726C 23.785282 48.067955 25.840118 48.99955 28 49C 29.268044 49.00206 30.515553 48.679855 31.624001 48.064003C 31.449978 47.521263 31.314638 46.966873 31.219 46.404999C 31.053926 45.418602 30.408159 44.57933 29.497 44.167C 26.254002 42.699997 25.441 36.811001 28.059999 35.5C 27.800766 33.934753 27.658373 32.352383 27.633999 30.765999C 29.879448 31.342804 32.26543 30.848751 34.097191 29.4277C 35.928955 28.006647 37.000568 25.818348 37 23.5ZM 55 23.5C 55.001427 19.888611 57.576351 16.79104 61.126678 16.129761C 64.67701 15.468483 68.194473 17.431295 69.496002 20.800001C 73.826538 21.858465 77.016609 25.53611 77.452644 29.97275C 77.88868 34.409389 75.475616 38.637714 71.434006 40.519001C 71.716507 42.660324 71.062149 44.819496 69.638435 46.443726C 68.214714 48.067955 66.159882 48.99955 64 49C 62.73196 49.00206 61.484451 48.679855 60.376007 48.064003C 60.550026 47.521263 60.685364 46.966873 60.780998 46.404999C 60.946075 45.418602 61.591843 44.57933 62.502998 44.167C 65.746002 42.694 66.559006 36.811001 63.939999 35.5C 64.199234 33.934753 64.341621 32.352383 64.365997 30.765999C 62.120552 31.342804 59.73457 30.848751 57.902809 29.4277C 56.071045 28.006647 54.999435 25.818348 55 23.5ZM 31.599998 48.072998C 34.009148 54.18454 39.500916 58.542488 46 59.5C 52.499084 58.542488 57.990852 54.18454 60.399998 48.072998M 59.862999 16.476999C 56.194809 12.94654 51.201237 11.137733 46.122997 11.5C 41.004875 11.137322 35.974079 12.968785 32.286999 16.537001M 10 10M 62.5 80.5L 70 80.5"></path></g></g></g><g id="g-root-tx_clearcut_m9v0l31lhun7q-stroke" data-item-order="0" transform="translate(62, 266)"></g><g id="g-root-tx_vividrep_1uooiwn1lhun0p-stroke" data-item-order="0" transform="translate(614, 266)"></g><g id="g-root-tx_3_250vr1li0b29-stroke" data-item-order="0" transform="translate(134, 410)"></g><g id="g-root-tx_1_de80c71lhuo0f-stroke" data-item-order="0" transform="translate(134, 146)"></g><g id="g-root-tx_crispvsf_1cw5k8n1lhun7o-stroke" data-item-order="0" transform="translate(158, 38)"></g><g id="g-root-tx_subtleta_1lsf1kn1li09ab-stroke" data-item-order="0" transform="translate(614, 530)"></g><g id="g-root-ic_90_qqxgvr1lhxfd9-stroke" data-item-order="0" transform="translate(266, 434)"><g id="ic_90_qqxgvr1lhxfd9-stroke" fill="none" stroke-linecap="round" stroke-linejoin="round" stroke-miterlimit="4" stroke="#fb6762" stroke-width="2"><g><path d="M 35.349998 44.050003C 38.949997 47.949997 44.349998 50.349998 50.050003 50.349998C 53.050003 50.349998 55.75 49.75 58.149998 48.550003M 46 62.350002C 52.793198 62.350002 58.300003 56.843201 58.300003 50.050003C 58.300003 43.256798 52.793198 37.75 46 37.75C 39.206917 37.75 33.700031 43.256798 33.700031 50.050003C 33.700031 56.843201 39.206917 62.350002 46 62.350002ZM 66.25 79.75C 62.350002 72.550003 54.849998 67.449997 46.150002 67.449997C 37.449997 67.449997 29.650002 72.550003 25.75 79.75M 10 10M 35.343819 21.46879L 37.406258 21.46879C 39.874268 21.46876 41.875 19.46806 41.875 17.00005C 41.875 14.53201 39.874241 12.531281 37.4062 12.531298L 35.343758 12.531316C 32.875748 12.531334 30.87505 14.53204 30.87505 17.00005C 30.87505 19.46806 32.875778 21.46879 35.343819 21.46879ZM 10 10M 41.875 16.65625L 41.875 24.90625C 41.875 27.18442 40.028202 29.03125 37.749969 29.03125L 34.999992 29.03125C 33.203949 29.03125 31.675989 27.88339 31.109741 26.28124M 50.125 16.90624L 50.125 24.65617C 50.125 27.07243 52.083698 29.03116 54.499901 29.03116L 56.749901 29.03116C 59.1661 29.03116 61.124798 27.07243 61.124798 24.65617L 61.124798 16.90624C 61.124798 14.49001 59.1661 12.53125 56.749901 12.53125L 54.499901 12.53125C 52.083698 12.53125 50.125 14.49001 50.125 16.90624Z"></path></g></g></g><g id="g-root-ic_sele_1uo21tj1lhyuby-stroke" data-item-order="0" transform="translate(458, 434)"><g id="ic_sele_1uo21tj1lhyuby-stroke" fill="none" stroke-linecap="round" stroke-linejoin="round" stroke-miterlimit="4" stroke="#f366bb" stroke-width="2"><g><path d="M 66.153999 17.865999L 67.653999 17.865999M 74.926003 20.434C 77.047028 22.427601 78.13459 25.285114 77.875809 28.184467C 77.61702 31.08382 76.040573 33.703552 73.600006 35.290001M 69.934006 36.699997C 69.437988 36.779846 68.936401 36.819977 68.434006 36.82M 62.260002 67.792L 62.386002 69.285995M 63.145 78.399994L 63.271 79.893997L 64.770996 79.893997M 72.108994 79.893997L 73.608994 79.893997L 73.731995 78.399994M 74.241997 72.294998L 74.665001 67.209999M 74.919998 64.158997L 75.045998 62.665001L 76.545998 62.665001M 79 62.665001L 80.5 62.665001L 80.5 61.165001M 80.5 53.439999L 80.5 52.327C 80.49913 46.916939 76.898209 42.168434 71.688995 40.708M 67.861 40.278999C 67.363129 40.30233 66.867188 40.356434 66.375999 40.440998M 35.806 22.423C 35.806 28.120922 40.425079 32.739998 46.123001 32.739998C 51.820923 32.739998 56.439999 28.120922 56.439999 22.423C 56.439999 16.725079 51.820923 12.106 46.123001 12.106C 40.425079 12.106 35.806 16.725079 35.806 22.423M 32.992001 49.618C 33.100441 42.444153 38.946838 36.685463 46.121498 36.685463C 53.296162 36.685463 59.142555 42.444153 59.250999 49.617996L 59.250999 60.874001L 53.313999 60.874001L 51.748001 79.629997L 40.494999 79.629997L 38.931999 60.874001L 32.992001 60.874001ZM 25.846001 17.865999L 24.346001 17.865999M 17.073999 20.434C 14.95297 22.427601 13.865408 25.285114 14.124195 28.184467C 14.382982 31.08382 15.959426 33.703552 18.4 35.290001M 22.066 36.699997C 22.562012 36.779846 23.063604 36.819977 23.566 36.82M 29.74 67.792L 29.614 69.285995M 28.855 78.399994L 28.729 79.893997L 27.229 79.893997M 19.890999 79.893997L 18.390999 79.893997L 18.268 78.399994M 17.757999 72.294998L 17.334999 67.209999M 17.08 64.158997L 16.954 62.665001L 15.454 62.665001M 13 62.665001L 11.5 62.665001L 11.5 61.165001M 11.5 53.439999L 11.5 52.327C 11.500869 46.916939 15.101791 42.168434 20.310999 40.708M 24.139 40.278999C 24.641886 40.301708 25.14286 40.355816 25.639 40.440998M 38.722 15.241C 43.335938 20.03763 49.770287 22.648449 56.422001 22.423"></path></g></g></g><g id="g-root-tx_511manwi_htf1dj1li08p3-stroke" data-item-order="0" transform="translate(38, 470)"></g><g id="g-root-tx_58manwit_1q88jp31li08i2-stroke" data-item-order="0" transform="translate(614, 470)"></g><g id="g-root-tx_distinct_4hyj071li0aa0-stroke" data-item-order="0" transform="translate(74, 530)"></g><g id="g-root-tx_4_1cws1br1li0a30-stroke" data-item-order="0" transform="translate(614, 410)"></g></g></g></svg>