<?xml version="1.0" encoding="utf-8" standalone="yes"?>
<!DOCTYPE svg PUBLIC "-//W3C//DTD SVG 1.1//EN" "http://www.w3.org/Graphics/SVG/1.1/DTD/svg11.dtd">
<svg width="864" height="372" viewBox="0 0 864 372" style="fill:none;stroke:none;fill-rule:evenodd;clip-rule:evenodd;stroke-linecap:round;stroke-linejoin:round;stroke-miterlimit:1.5;" version="1.1" xmlns="http://www.w3.org/2000/svg" xmlns:xlink="http://www.w3.org/1999/xlink"><style class="text-font-style fontImports" data-font-family="Roboto">@import url('https://fonts.googleapis.com/css2?family=Roboto:wght@400;700&amp;display=block');</style><rect id="" x="0" y="0" width="864" height="372" style="fill: #2c2c2c;"></rect><g id="items" style="isolation: isolate"><g id="blend" style="mix-blend-mode: normal"><g id="g-root-tf_1d2d97q1jton46-fill" data-item-order="-482112"><g id="tf_1d2d97q1jton46-fill" stroke="none" fill="#2c2c2c"><g><path d="M 0 0L 864 0L 864 372L 0 372Z"></path></g></g></g><g id="g-root-cp_2_g-2_hyds6e1jtq2a7-fill" data-item-order="-225206" transform="translate(338, 122)"><g id="cp_2_g-2_hyds6e1jtq2a7-fill" stroke="none" fill="#b7b7b7"><g><path d="M 10 94C 10.000002 140.391921 47.608083 178.000002 94.000002 178.000002C 140.391921 178.000002 178.000002 140.391921 178.000002 94.000002C 178.000002 47.608083 140.391921 10.000002 94.000002 10.000002C 47.608083 10.000002 10.000002 47.608083 10.000002 94.000002"></path></g></g></g><g id="g-root-cp_3_g-3_dika1y1jtq32g-fill" data-item-order="-225202" transform="translate(460.13299560546875, 130)"><g id="cp_3_g-3_dika1y1jtq32g-fill" stroke="none" fill="#f79438"><g><path d="M 10 160.866C 37.2248 146.971 55.8669 118.663 55.8669 86C 55.8669 53.3374 37.2248 25.029 10 11.1343C 16.8572 10.3847 23.8241 10 30.8809 10C 38.7086 10 46.4257 10.4734 54.0052 11.393C 106.6159 17.7765 152.596 45.6638 182.895 86.0014C 152.596 126.339 106.6159 154.225 54.0052 160.608C 46.4259 161.528 38.7084 162 30.8809 162C 23.8241 162 16.8572 161.615 10 160.866Z"></path></g></g></g><g id="g-root-cp_1_g-1_92qrxi1jtq3uq-fill" data-item-order="-225198" transform="translate(211, 130)"><g id="cp_1_g-1_92qrxi1jtq3uq-fill" stroke="none" fill="#4f91fc"><g><path d="M 182.874 160.869C 176.024 161.617 169.063 162 162.014 162C 99.8528 162 44.6638 132.149 10 86C 44.6638 39.851 99.8528 10 162.014 10C 169.063 10 176.022 10.3839 182.872 11.1318C 155.644 25.0256 137 53.3355 137 86C 137 118.665 155.645 146.976 182.874 160.869Z"></path></g></g></g><g id="g-root-tx_thesyner_7q8rq1jtq1ho-fill" data-item-order="0" transform="translate(188, 38)"><g id="tx_thesyner_7q8rq1jtq1ho-fill" stroke="none" fill="#f4f4f4"><g><text style="font: bold 25px Roboto, sans-serif; white-space: pre;" font-weight="bold" font-size="25px" font-family="Roboto, sans-serif"><tspan x="13.7" y="43" dominant-baseline="ideographic">The Synergy of Hard and Soft Computing</tspan></text></g></g></g><g id="g-root-tx_hardcomp_qv9qli1jtq3nr-fill" data-item-order="0" transform="translate(74, 158.5)"><g id="tx_hardcomp_qv9qli1jtq3nr-fill" stroke="none" fill="#4f91fc"><g><text style="font: bold 20px Roboto, sans-serif; white-space: pre;" font-weight="bold" font-size="20px" font-family="Roboto, sans-serif"><tspan x="72.77" y="34" dominant-baseline="ideographic">Hard </tspan><tspan x="17.14" y="58" dominant-baseline="ideographic">Computing</tspan></text></g></g></g><g id="g-root-tx_softcomp_18mjr3a1jtq1al-fill" data-item-order="0" transform="translate(662, 158.5)"><g id="tx_softcomp_18mjr3a1jtq1al-fill" stroke="none" fill="#f79438"><g><text style="font: bold 20px Roboto, sans-serif; white-space: pre;" font-weight="bold" font-size="20px" font-family="Roboto, sans-serif"><tspan x="12" y="34" dominant-baseline="ideographic">Soft </tspan><tspan x="12" y="58" dominant-baseline="ideographic">Computing</tspan></text></g></g></g><g id="g-root-ic_boar_1uuw7vq1jtq136-fill" data-item-order="0" transform="translate(266.5, 180)"></g><g id="g-root-ic_feat_mfg8h21jtrhtv-fill" data-item-order="0" transform="translate(518, 177.5)"></g><g id="g-root-tx_hybridco_dkfpba1jtq22x-fill" data-item-order="0" transform="translate(368, 195)"><g id="tx_hybridco_dkfpba1jtq22x-fill" stroke="none" fill="#2c2c2c"><g><text style="font: bold 20px Roboto, sans-serif; white-space: pre;" font-weight="bold" font-size="20px" font-family="Roboto, sans-serif"><tspan x="34.34" y="34" dominant-baseline="ideographic">Hybrid </tspan><tspan x="14.57" y="58" dominant-baseline="ideographic">Computing</tspan></text></g></g></g><g id="g-root-tx_precises_mg2pk61jtq1a8-fill" data-item-order="0" transform="translate(50, 218.5)"><g id="tx_precises_mg2pk61jtq1a8-fill" stroke="none" fill="#ebf2ff"><g><text style="font: 15px Roboto, sans-serif; white-space: pre;" font-size="15px" font-family="Roboto, sans-serif"><tspan x="15.38" y="28" dominant-baseline="ideographic">Precise, structured </tspan><tspan x="33.19" y="46" dominant-baseline="ideographic">problem-solving</tspan></text></g></g></g><g id="g-root-tx_adaptive_146q8yu1jtq22u-fill" data-item-order="0" transform="translate(662, 218.5)"><g id="tx_adaptive_146q8yu1jtq22u-fill" stroke="none" fill="#fff0e2"><g><text style="font: 15px Roboto, sans-serif; white-space: pre;" font-size="15px" font-family="Roboto, sans-serif"><tspan x="12" y="28" dominant-baseline="ideographic">Adaptive, human-like </tspan><tspan x="12" y="46" dominant-baseline="ideographic">reasoning</tspan></text></g></g></g><g id="g-root-tf_1d2d97q1jton46-stroke" data-item-order="-482112"></g><g id="g-root-cp_2_g-2_hyds6e1jtq2a7-stroke" data-item-order="-225206" transform="translate(338, 122)"><g id="cp_2_g-2_hyds6e1jtq2a7-stroke" fill="none" stroke-linecap="round" stroke-linejoin="round" stroke-miterlimit="4" stroke="#2c2c2c" stroke-width="2"><g><path d="M 10 94C 10.000002 140.391921 47.608083 178.000002 94.000002 178.000002C 140.391921 178.000002 178.000002 140.391921 178.000002 94.000002C 178.000002 47.608083 140.391921 10.000002 94.000002 10.000002C 47.608083 10.000002 10.000002 47.608083 10.000002 94.000002"></path></g></g></g><g id="g-root-cp_3_g-3_dika1y1jtq32g-stroke" data-item-order="-225202" transform="translate(460.13299560546875, 130)"><g id="cp_3_g-3_dika1y1jtq32g-stroke" fill="none" stroke-linecap="round" stroke-linejoin="round" stroke-miterlimit="4" stroke="#2c2c2c" stroke-width="2"><g><path d="M 10 160.8657C 37.2248 146.971 55.8669 118.6626 55.8669 86C 55.8669 53.3374 37.2248 25.029 10 11.1343C 16.8572 10.3847 23.8241 10 30.8809 10C 38.7086 10 46.4257 10.4734 54.0052 11.393C 106.6159 17.7765 152.596 45.6638 182.8948 86.0014C 152.596 126.339 106.6159 154.2249 54.0052 160.6084C 46.4259 161.528 38.7084 162 30.8809 162C 23.8241 162 16.8572 161.6153 10 160.8657Z"></path></g></g></g><g id="g-root-cp_1_g-1_92qrxi1jtq3uq-stroke" data-item-order="-225198" transform="translate(211, 130)"><g id="cp_1_g-1_92qrxi1jtq3uq-stroke" fill="none" stroke-linecap="round" stroke-linejoin="round" stroke-miterlimit="4" stroke="#2c2c2c" stroke-width="2"><g><path d="M 182.874 160.8693C 176.0236 161.6172 169.0634 162 162.0139 162C 99.8528 162 44.6638 132.149 10 86C 44.6638 39.851 99.8528 10 162.0139 10C 169.0628 10 176.022 10.3839 182.8718 11.1318C 155.6444 25.0256 137 53.3355 137 86C 137 118.6654 155.6454 146.9759 182.874 160.8693Z"></path></g></g></g><g id="g-root-tx_thesyner_7q8rq1jtq1ho-stroke" data-item-order="0" transform="translate(188, 38)"></g><g id="g-root-tx_hardcomp_qv9qli1jtq3nr-stroke" data-item-order="0" transform="translate(74, 158.5)"></g><g id="g-root-tx_softcomp_18mjr3a1jtq1al-stroke" data-item-order="0" transform="translate(662, 158.5)"></g><g id="g-root-ic_boar_1uuw7vq1jtq136-stroke" data-item-order="0" transform="translate(266.5, 180)"><g id="ic_boar_1uuw7vq1jtq136-stroke" fill="none" stroke-linecap="round" stroke-linejoin="round" stroke-miterlimit="4" stroke="#2c2c2c" stroke-width="2"><g><path d="M 13 11L 55 11C 55 11 57 11 57 13L 57 55C 57 55 57 57 55 57L 13 57C 13 57 11 57 11 55L 11 13C 11 13 11 11 13 11M 39 17L 50.998001 17M 39 21L 50.998001 21M 39 25L 50.998001 25M 21 35L 33 35L 33 47L 21 47ZM 23 35L 23 31M 27 35L 27 31M 27 51L 27 47M 31 35L 31 31M 23 51L 23 47M 31 51L 31 47M 33 37L 37 37M 33 41L 37 41M 33 45L 37 45M 17 37L 21 37M 17 41L 21 41M 17 45L 21 45M 43.498001 33C 43.774143 33 43.998001 33.223858 43.998001 33.5C 43.998001 33.776142 43.774143 34 43.498001 34C 43.221859 34 42.998001 33.776142 42.998001 33.5C 42.998001 33.223858 43.221859 33 43.498001 33M 43.498001 40C 43.774143 40 43.998001 40.223858 43.998001 40.5C 43.998001 40.776142 43.774143 41 43.498001 41C 43.221859 41 42.998001 40.776142 42.998001 40.5C 42.998001 40.223858 43.221859 40 43.498001 40M 43.498001 47C 43.774143 47 43.998001 47.223858 43.998001 47.5C 43.998001 47.776142 43.774143 48 43.498001 48C 43.221859 48 42.998001 47.776142 42.998001 47.5C 42.998001 47.223858 43.221859 47 43.498001 47M 51 31L 51 51M 17 22C 17 23.656855 18.343147 25 20 25C 21.656855 25 23 23.656855 23 22C 23 20.343147 21.656855 19 20 19C 18.343147 19 17 20.343147 17 22M 27 22C 27 23.656855 28.343147 25 30 25C 31.656855 25 33 23.656855 33 22C 33 20.343147 31.656855 19 30 19C 28.343147 19 27 20.343147 27 22"></path></g></g></g><g id="g-root-ic_feat_mfg8h21jtrhtv-stroke" data-item-order="0" transform="translate(518, 177.5)"><g id="ic_feat_mfg8h21jtrhtv-stroke" fill="none" stroke-linecap="round" stroke-linejoin="round" stroke-miterlimit="4" stroke="#2c2c2c" stroke-width="2"><g><path d="M 11 28L 57 28L 57 40L 11 40ZM 28 11L 40 11L 40 23L 28 23ZM 28 45L 40 45L 40 57L 28 57Z"></path></g></g></g><g id="g-root-tx_hybridco_dkfpba1jtq22x-stroke" data-item-order="0" transform="translate(368, 195)"></g><g id="g-root-tx_precises_mg2pk61jtq1a8-stroke" data-item-order="0" transform="translate(50, 218.5)"></g><g id="g-root-tx_adaptive_146q8yu1jtq22u-stroke" data-item-order="0" transform="translate(662, 218.5)"></g></g></g></svg>