<?xml version="1.0" encoding="utf-8" standalone="yes"?>
<!DOCTYPE svg PUBLIC "-//W3C//DTD SVG 1.1//EN" "http://www.w3.org/Graphics/SVG/1.1/DTD/svg11.dtd">
<svg width="488" height="510" viewBox="0 0 488 510" style="fill:none;stroke:none;fill-rule:evenodd;clip-rule:evenodd;stroke-linecap:round;stroke-linejoin:round;stroke-miterlimit:1.5;" version="1.1" xmlns="http://www.w3.org/2000/svg" xmlns:xlink="http://www.w3.org/1999/xlink"><style class="text-font-style fontImports" data-font-family="Roboto">@import url('https://fonts.googleapis.com/css2?family=Roboto:wght@400;700&amp;display=block');</style><rect id="" x="0" y="0" width="488" height="510" style="fill: #2c2c2c;"></rect><g id="items" style="isolation: isolate"><g id="blend" style="mix-blend-mode: normal"><g id="g-root-tf_2qcvs1l7s8ar-fill" data-item-order="-373320"><g id="tf_2qcvs1l7s8ar-fill" stroke="none" fill="#2c2c2c"><g><path d="M0 0h488 v510 h -488 Z"></path></g></g></g><g id="g-root-cp_0-0_cell-0-0_mcbrug1l7tmv9-fill" data-item-order="-129732" transform="translate(73, 146)"><g id="cp_0-0_cell-0-0_mcbrug1l7tmv9-fill" stroke="none" fill="#545454"><g><path d="M 10 16C 10 12.6863 12.6863 10 16 10L 22 10L 22 22L 10 22L 10 16ZM 22 10L 22 22L 130.000008 22L 130.000008 10L 22 10ZM 142 16C 142 12.6863 139.3137 10 136 10L 130 10L 130 22L 142 22L 142 16ZM 142 22L 10 22L 10 46L 142 46L 142 22ZM 10 52C 10 55.3137 12.6863 58 16 58L 22 58L 22 46L 10 46L 10 52ZM 130.000008 58L 130.000008 46L 22 46L 22 58L 130.000008 58ZM 136 58C 139.3137 58 142 55.3137 142 52L 142 46L 130 46L 130 58L 136 58Z"></path></g></g></g><g id="g-root-cp_0-1_cell-0-1_90v9h41l7tog7-fill" data-item-order="-129700" transform="translate(217, 146)"><g id="cp_0-1_cell-0-1_90v9h41l7tog7-fill" stroke="none" fill="#545454"><g><path d="M 10 16C 10 12.6863 12.6863 10 16 10L 22 10L 22 22L 10 22L 10 16ZM 22 10L 22 22L 46 22L 46 10L 22 10ZM 58 16C 58 12.6863 55.3137 10 52 10L 46 10L 46 22L 58 22L 58 16ZM 58.000004 22L 10 22L 10 46L 58.000004 46L 58.000004 22ZM 10 52C 10 55.3137 12.6863 58 16 58L 22 58L 22 46L 10 46L 10 52ZM 46 58L 46 46L 22 46L 22 58L 46 58ZM 52 58C 55.3137 58 58 55.3137 58 52L 58 46L 46 46L 46 58L 52 58Z"></path></g></g></g><g id="g-root-cp_0-2_cell-0-2_4lo8fs1l7tm2o-fill" data-item-order="-129678" transform="translate(277, 146)"><g id="cp_0-2_cell-0-2_4lo8fs1l7tm2o-fill" stroke="none" fill="#545454"><g><path d="M 10 16C 10 12.6863 12.6863 10 16 10L 22 10L 22 22L 10 22L 10 16ZM 22 10L 22 22L 46 22L 46 10L 22 10ZM 58 16C 58 12.6863 55.3137 10 52 10L 46 10L 46 22L 58 22L 58 16ZM 58.000004 22L 10 22L 10 46L 58.000004 46L 58.000004 22ZM 10 52C 10 55.3137 12.6863 58 16 58L 22 58L 22 46L 10 46L 10 52ZM 46 58L 46 46L 22 46L 22 58L 46 58ZM 52 58C 55.3137 58 58 55.3137 58 52L 58 46L 46 46L 46 58L 52 58Z"></path></g></g></g><g id="g-root-cp_0-3_cell-0-3_1ur5a601l7tmo9-fill" data-item-order="-129656" transform="translate(337, 146)"><g id="cp_0-3_cell-0-3_1ur5a601l7tmo9-fill" stroke="none" fill="#545454"><g><path d="M 10 16C 10 12.6863 12.6863 10 16 10L 22 10L 22 22L 10 22L 10 16ZM 22 10L 22 22L 46 22L 46 10L 22 10ZM 58 16C 58 12.6863 55.3137 10 52 10L 46 10L 46 22L 58 22L 58 16ZM 58.000004 22L 10 22L 10 46L 58.000004 46L 58.000004 22ZM 10 52C 10 55.3137 12.6863 58 16 58L 22 58L 22 46L 10 46L 10 52ZM 46 58L 46 46L 22 46L 22 58L 46 58ZM 52 58C 55.3137 58 58 55.3137 58 52L 58 46L 46 46L 46 58L 52 58Z"></path></g></g></g><g id="g-root-cp_1-0_cell-1-0_1qbbs1k1l7tngi-fill" data-item-order="-129630" transform="translate(73, 206)"><g id="cp_1-0_cell-1-0_1qbbs1k1l7tngi-fill" stroke="none" fill="#4b533a"><g><path d="M 10 16C 10 12.6863 12.6863 10 16 10L 22 10L 22 22L 10 22L 10 16ZM 22 10L 22 22L 130.000008 22L 130.000008 10L 22 10ZM 142 16C 142 12.6863 139.3137 10 136 10L 130 10L 130 22L 142 22L 142 16ZM 142 22L 10 22L 10 46L 142 46L 142 22ZM 10 52C 10 55.3137 12.6863 58 16 58L 22 58L 22 46L 10 46L 10 52ZM 130.000008 58L 130.000008 46L 22 46L 22 58L 130.000008 58ZM 136 58C 139.3137 58 142 55.3137 142 52L 142 46L 130 46L 130 58L 136 58Z"></path></g></g></g><g id="g-root-cp_1-1_cell-1-1_1qbbs1k1l7tngk-fill" data-item-order="-129594" transform="translate(217, 206)"><g id="cp_1-1_cell-1-1_1qbbs1k1l7tngk-fill" stroke="none" fill="#344e57"><g><path d="M 10 16C 10 12.6863 12.6863 10 16 10L 22 10L 22 22L 10 22L 10 16ZM 22 10L 22 22L 46 22L 46 10L 22 10ZM 58 16C 58 12.6863 55.3137 10 52 10L 46 10L 46 22L 58 22L 58 16ZM 58.000004 22L 10 22L 10 46L 58.000004 46L 58.000004 22ZM 10 52C 10 55.3137 12.6863 58 16 58L 22 58L 22 46L 10 46L 10 52ZM 46 58L 46 46L 22 46L 22 58L 46 58ZM 52 58C 55.3137 58 58 55.3137 58 52L 58 46L 46 46L 46 58L 52 58Z"></path></g></g></g><g id="g-root-cp_1-2_cell-1-2_1hforso1l7to99-fill" data-item-order="-129576" transform="translate(277, 206)"><g id="cp_1-2_cell-1-2_1hforso1l7to99-fill" stroke="none" fill="#344e57"><g><path d="M 10 16C 10 12.6863 12.6863 10 16 10L 22 10L 22 22L 10 22L 10 16ZM 22 10L 22 22L 46 22L 46 10L 22 10ZM 58 16C 58 12.6863 55.3137 10 52 10L 46 10L 46 22L 58 22L 58 16ZM 58.000004 22L 10 22L 10 46L 58.000004 46L 58.000004 22ZM 10 52C 10 55.3137 12.6863 58 16 58L 22 58L 22 46L 10 46L 10 52ZM 46 58L 46 46L 22 46L 22 58L 46 58ZM 52 58C 55.3137 58 58 55.3137 58 52L 58 46L 46 46L 46 58L 52 58Z"></path></g></g></g><g id="g-root-cp_1-3_cell-1-3_1czv9o81l7tp1i-fill" data-item-order="-129558" transform="translate(337, 206)"><g id="cp_1-3_cell-1-3_1czv9o81l7tp1i-fill" stroke="none" fill="#344e57"><g><path d="M 10 16C 10 12.6863 12.6863 10 16 10L 22 10L 22 22L 10 22L 10 16ZM 22 10L 22 22L 46 22L 46 10L 22 10ZM 58 16C 58 12.6863 55.3137 10 52 10L 46 10L 46 22L 58 22L 58 16ZM 58.000004 22L 10 22L 10 46L 58.000004 46L 58.000004 22ZM 10 52C 10 55.3137 12.6863 58 16 58L 22 58L 22 46L 10 46L 10 52ZM 46 58L 46 46L 22 46L 22 58L 46 58ZM 52 58C 55.3137 58 58 55.3137 58 52L 58 46L 46 46L 46 58L 52 58Z"></path></g></g></g><g id="g-root-cp_2-0_cell-2-0_144uqig1l7tmof-fill" data-item-order="-129538" transform="translate(73, 266)"><g id="cp_2-0_cell-2-0_144uqig1l7tmof-fill" stroke="none" fill="#4b533a"><g><path d="M 10 16C 10 12.6863 12.6863 10 16 10L 22 10L 22 22L 10 22L 10 16ZM 22 10L 22 22L 130.000008 22L 130.000008 10L 22 10ZM 142 16C 142 12.6863 139.3137 10 136 10L 130 10L 130 22L 142 22L 142 16ZM 142 22L 10 22L 10 46L 142 46L 142 22ZM 10 52C 10 55.3137 12.6863 58 16 58L 22 58L 22 46L 10 46L 10 52ZM 130.000008 58L 130.000008 46L 22 46L 22 58L 130.000008 58ZM 136 58C 139.3137 58 142 55.3137 142 52L 142 46L 130 46L 130 58L 136 58Z"></path></g></g></g><g id="g-root-cp_2-1_cell-2-1_zp18e01l7tngp-fill" data-item-order="-129502" transform="translate(217, 266)"><g id="cp_2-1_cell-2-1_zp18e01l7tngp-fill" stroke="none" fill="#344e57"><g><path d="M 10 16C 10 12.6863 12.6863 10 16 10L 22 10L 22 22L 10 22L 10 16ZM 22 10L 22 22L 46 22L 46 10L 22 10ZM 58 16C 58 12.6863 55.3137 10 52 10L 46 10L 46 22L 58 22L 58 16ZM 58.000004 22L 10 22L 10 46L 58.000004 46L 58.000004 22ZM 10 52C 10 55.3137 12.6863 58 16 58L 22 58L 22 46L 10 46L 10 52ZM 46 58L 46 46L 22 46L 22 58L 46 58ZM 52 58C 55.3137 58 58 55.3137 58 52L 58 46L 46 46L 46 58L 52 58Z"></path></g></g></g><g id="g-root-cp_2-2_cell-2-2_v97q9k1l7to8y-fill" data-item-order="-129484" transform="translate(277, 266)"><g id="cp_2-2_cell-2-2_v97q9k1l7to8y-fill" stroke="none" fill="#344e57"><g><path d="M 10 16C 10 12.6863 12.6863 10 16 10L 22 10L 22 22L 10 22L 10 16ZM 22 10L 22 22L 46 22L 46 10L 22 10ZM 58 16C 58 12.6863 55.3137 10 52 10L 46 10L 46 22L 58 22L 58 16ZM 58.000004 22L 10 22L 10 46L 58.000004 46L 58.000004 22ZM 10 52C 10 55.3137 12.6863 58 16 58L 22 58L 22 46L 10 46L 10 52ZM 46 58L 46 46L 22 46L 22 58L 46 58ZM 52 58C 55.3137 58 58 55.3137 58 52L 58 46L 46 46L 46 58L 52 58Z"></path></g></g></g><g id="g-root-cp_2-3_cell-2-3_mdkq0o1l7tp1n-fill" data-item-order="-129466" transform="translate(337, 266)"><g id="cp_2-3_cell-2-3_mdkq0o1l7tp1n-fill" stroke="none" fill="#344e57"><g><path d="M 10 16C 10 12.6863 12.6863 10 16 10L 22 10L 22 22L 10 22L 10 16ZM 22 10L 22 22L 46 22L 46 10L 22 10ZM 58 16C 58 12.6863 55.3137 10 52 10L 46 10L 46 22L 58 22L 58 16ZM 58.000004 22L 10 22L 10 46L 58.000004 46L 58.000004 22ZM 10 52C 10 55.3137 12.6863 58 16 58L 22 58L 22 46L 10 46L 10 52ZM 46 58L 46 46L 22 46L 22 58L 46 58ZM 52 58C 55.3137 58 58 55.3137 58 52L 58 46L 46 46L 46 58L 52 58Z"></path></g></g></g><g id="g-root-cp_3-0_cell-3-0_hydozc1l7tmo4-fill" data-item-order="-129446" transform="translate(73, 326)"><g id="cp_3-0_cell-3-0_hydozc1l7tmo4-fill" stroke="none" fill="#4b533a"><g><path d="M 10 16C 10 12.6863 12.6863 10 16 10L 22 10L 22 22L 10 22L 10 16ZM 22 10L 22 22L 130.000008 22L 130.000008 10L 22 10ZM 142 16C 142 12.6863 139.3137 10 136 10L 130 10L 130 22L 142 22L 142 16ZM 142 22L 10 22L 10 46L 142 46L 142 22ZM 10 52C 10 55.3137 12.6863 58 16 58L 22 58L 22 46L 10 46L 10 52ZM 130.000008 58L 130.000008 46L 22 46L 22 58L 130.000008 58ZM 136 58C 139.3137 58 142 55.3137 142 52L 142 46L 130 46L 130 58L 136 58Z"></path></g></g></g><g id="g-root-cp_3-1_cell-3-1_92qoqg1l7tngu-fill" data-item-order="-129408" transform="translate(217, 326)"><g id="cp_3-1_cell-3-1_92qoqg1l7tngu-fill" stroke="none" fill="#344e57"><g><path d="M 10 16C 10 12.6863 12.6863 10 16 10L 22 10L 22 22L 10 22L 10 16ZM 22 10L 22 22L 46 22L 46 10L 22 10ZM 58 16C 58 12.6863 55.3137 10 52 10L 46 10L 46 22L 58 22L 58 16ZM 58.000004 22L 10 22L 10 46L 58.000004 46L 58.000004 22ZM 10 52C 10 55.3137 12.6863 58 16 58L 22 58L 22 46L 10 46L 10 52ZM 46 58L 46 46L 22 46L 22 58L 46 58ZM 52 58C 55.3137 58 58 55.3137 58 52L 58 46L 46 46L 46 58L 52 58Z"></path></g></g></g><g id="g-root-cp_3-2_cell-3-2_4mx6m01l7to93-fill" data-item-order="-129390" transform="translate(277, 326)"><g id="cp_3-2_cell-3-2_4mx6m01l7to93-fill" stroke="none" fill="#344e57"><g><path d="M 10 16C 10 12.6863 12.6863 10 16 10L 22 10L 22 22L 10 22L 10 16ZM 22 10L 22 22L 46 22L 46 10L 22 10ZM 58 16C 58 12.6863 55.3137 10 52 10L 46 10L 46 22L 58 22L 58 16ZM 58.000004 22L 10 22L 10 46L 58.000004 46L 58.000004 22ZM 10 52C 10 55.3137 12.6863 58 16 58L 22 58L 22 46L 10 46L 10 52ZM 46 58L 46 46L 22 46L 22 58L 46 58ZM 52 58C 55.3137 58 58 55.3137 58 52L 58 46L 46 46L 46 58L 52 58Z"></path></g></g></g><g id="g-root-cp_3-3_cell-3-3_73ohk1l7tp1c-fill" data-item-order="-129372" transform="translate(337, 326)"><g id="cp_3-3_cell-3-3_73ohk1l7tp1c-fill" stroke="none" fill="#344e57"><g><path d="M 10 16C 10 12.6863 12.6863 10 16 10L 22 10L 22 22L 10 22L 10 16ZM 22 10L 22 22L 46 22L 46 10L 22 10ZM 58 16C 58 12.6863 55.3137 10 52 10L 46 10L 46 22L 58 22L 58 16ZM 58.000004 22L 10 22L 10 46L 58.000004 46L 58.000004 22ZM 10 52C 10 55.3137 12.6863 58 16 58L 22 58L 22 46L 10 46L 10 52ZM 46 58L 46 46L 22 46L 22 58L 46 58ZM 52 58C 55.3137 58 58 55.3137 58 52L 58 46L 46 46L 46 58L 52 58Z"></path></g></g></g><g id="g-root-tx_1_4oslvc1l7tn9l-fill" data-item-order="0" transform="translate(355, 218)"><g id="tx_1_4oslvc1l7tn9l-fill" stroke="none" fill="#ffffff"><g><text style="font: 15px Roboto, sans-serif; white-space: pre;" font-size="15px" font-family="Roboto, sans-serif"><tspan x="11.78" y="31" dominant-baseline="ideographic">1</tspan></text></g></g></g><g id="g-root-tx_0_hzmn5k1l7toug-fill" data-item-order="0" transform="translate(295, 218)"><g id="tx_0_hzmn5k1l7toug-fill" stroke="none" fill="#ffffff"><g><text style="font: 15px Roboto, sans-serif; white-space: pre;" font-size="15px" font-family="Roboto, sans-serif"><tspan x="11.78" y="31" dominant-baseline="ideographic">0</tspan></text></g></g></g><g id="g-root-tx_3_8z3qw1l7to1u-fill" data-item-order="0" transform="translate(85, 278)"><g id="tx_3_8z3qw1l7to1u-fill" stroke="none" fill="#a6da37"><g><text style="font: bold 20px Roboto, sans-serif; white-space: pre;" font-weight="bold" font-size="20px" font-family="Roboto, sans-serif"><tspan x="12" y="34" dominant-baseline="ideographic">3</tspan></text></g></g></g><g id="g-root-tx_0_hzmn5k1l7touf-fill" data-item-order="0" transform="translate(235, 218)"><g id="tx_0_hzmn5k1l7touf-fill" stroke="none" fill="#ffffff"><g><text style="font: 15px Roboto, sans-serif; white-space: pre;" font-size="15px" font-family="Roboto, sans-serif"><tspan x="11.78" y="31" dominant-baseline="ideographic">0</tspan></text></g></g></g><g id="g-root-tx_0_1lz94fs1l7tm9v-fill" data-item-order="0" transform="translate(235, 278)"><g id="tx_0_1lz94fs1l7tm9v-fill" stroke="none" fill="#ffffff"><g><text style="font: 15px Roboto, sans-serif; white-space: pre;" font-size="15px" font-family="Roboto, sans-serif"><tspan x="11.78" y="31" dominant-baseline="ideographic">0</tspan></text></g></g></g><g id="g-root-tx_1_mfg5a01l7to26-fill" data-item-order="0" transform="translate(85, 218)"><g id="tx_1_mfg5a01l7to26-fill" stroke="none" fill="#a6da37"><g><text style="font: bold 20px Roboto, sans-serif; white-space: pre;" font-weight="bold" font-size="20px" font-family="Roboto, sans-serif"><tspan x="12" y="34" dominant-baseline="ideographic">1</tspan></text></g></g></g><g id="g-root-tx_0_1d3m46w1l7tn2k-fill" data-item-order="0" transform="translate(295, 278)"><g id="tx_0_1d3m46w1l7tn2k-fill" stroke="none" fill="#ffffff"><g><text style="font: 15px Roboto, sans-serif; white-space: pre;" font-size="15px" font-family="Roboto, sans-serif"><tspan x="11.78" y="31" dominant-baseline="ideographic">0</tspan></text></g></g></g><g id="g-root-tx_5_vb35iw1l7tn9h-fill" data-item-order="0" transform="translate(349, 158)"><g id="tx_5_vb35iw1l7tn9h-fill" stroke="none" fill="#b7b7b7"><g><text style="font: bold 20px Roboto, sans-serif; white-space: pre;" font-weight="bold" font-size="20px" font-family="Roboto, sans-serif"><tspan x="16.26" y="34" dominant-baseline="ideographic">5</tspan></text></g></g></g><g id="g-root-tx_0_18nsm2g1l7tnut-fill" data-item-order="0" transform="translate(355, 278)"><g id="tx_0_18nsm2g1l7tnut-fill" stroke="none" fill="#ffffff"><g><text style="font: 15px Roboto, sans-serif; white-space: pre;" font-size="15px" font-family="Roboto, sans-serif"><tspan x="11.78" y="31" dominant-baseline="ideographic">0</tspan></text></g></g></g><g id="g-root-tx_3_zqwnnc1l7tmh8-fill" data-item-order="0" transform="translate(289, 158)"><g id="tx_3_zqwnnc1l7tmh8-fill" stroke="none" fill="#b7b7b7"><g><text style="font: bold 20px Roboto, sans-serif; white-space: pre;" font-weight="bold" font-size="20px" font-family="Roboto, sans-serif"><tspan x="16.26" y="34" dominant-baseline="ideographic">3</tspan></text></g></g></g><g id="g-root-tx_5_zs5ltk1l7toni-fill" data-item-order="0" transform="translate(85, 338)"><g id="tx_5_zs5ltk1l7toni-fill" stroke="none" fill="#a6da37"><g><text style="font: bold 20px Roboto, sans-serif; white-space: pre;" font-weight="bold" font-size="20px" font-family="Roboto, sans-serif"><tspan x="12" y="34" dominant-baseline="ideographic">5</tspan></text></g></g></g><g id="g-root-tx_1_18lx6t41l7toub-fill" data-item-order="0" transform="translate(229, 158)"><g id="tx_1_18lx6t41l7toub-fill" stroke="none" fill="#b7b7b7"><g><text style="font: bold 20px Roboto, sans-serif; white-space: pre;" font-weight="bold" font-size="20px" font-family="Roboto, sans-serif"><tspan x="16.26" y="34" dominant-baseline="ideographic">1</tspan></text></g></g></g><g id="g-root-tx_0_v2yzeg1l7v0uf-fill" data-item-order="0" transform="translate(235, 338)"><g id="tx_0_v2yzeg1l7v0uf-fill" stroke="none" fill="#ffffff"><g><text style="font: 15px Roboto, sans-serif; white-space: pre;" font-size="15px" font-family="Roboto, sans-serif"><tspan x="11.78" y="31" dominant-baseline="ideographic">0</tspan></text></g></g></g><g id="g-root-tx_0_hrih141l7v2fd-fill" data-item-order="0" transform="translate(355, 338)"><g id="tx_0_hrih141l7v2fd-fill" stroke="none" fill="#ffffff"><g><text style="font: 15px Roboto, sans-serif; white-space: pre;" font-size="15px" font-family="Roboto, sans-serif"><tspan x="11.78" y="31" dominant-baseline="ideographic">0</tspan></text></g></g></g><g id="g-root-tx_0_qn5ha01l7v1mo-fill" data-item-order="0" transform="translate(295, 338)"><g id="tx_0_qn5ha01l7v1mo-fill" stroke="none" fill="#ffffff"><g><text style="font: 15px Roboto, sans-serif; white-space: pre;" font-size="15px" font-family="Roboto, sans-serif"><tspan x="11.78" y="31" dominant-baseline="ideographic">0</tspan></text></g></g></g><g id="g-root-tx_maxminco_73ohk1l7tp1d-fill" data-item-order="0" transform="translate(25, 74)"><g id="tx_maxminco_73ohk1l7tp1d-fill" stroke="none" fill="#f4f4f4"><g><text style="font: bold 25px Roboto, sans-serif; white-space: pre;" font-weight="bold" font-size="25px" font-family="Roboto, sans-serif"><tspan x="15.68" y="43" dominant-baseline="ideographic">Max-Min Composition Matrix: R âˆ˜ S</tspan></text></g></g></g><g id="g-root-tx_xvalues_1lxdp6g1l7tn9e-fill" data-item-order="0" transform="translate(85, 158)"><g id="tx_xvalues_1lxdp6g1l7tn9e-fill" stroke="none" fill="#b7b7b7"><g><text style="font: bold 20px Roboto, sans-serif; white-space: pre;" font-weight="bold" font-size="20px" font-family="Roboto, sans-serif"><tspan x="12" y="34" dominant-baseline="ideographic">ğ‘‡(ğ‘¥,ğ‘§)=ğ‘…âˆ˜ğ‘†</tspan></text></g></g></g><g id="g-root-tf_2qcvs1l7s8ar-stroke" data-item-order="-373320"></g><g id="g-root-cp_0-0_cell-0-0_mcbrug1l7tmv9-stroke" data-item-order="-129732" transform="translate(73, 146)"><g id="cp_0-0_cell-0-0_mcbrug1l7tmv9-stroke" fill="none" stroke-linecap="round" stroke-linejoin="round" stroke-miterlimit="4" stroke="#b7b7b7" stroke-width="2"><g><path d="M 10 22L 10 16C 10 12.6863 12.6863 10 16 10L 22 10M 142 22L 142 46M 10 46L 10 22M 22 10L 130.000008 10M 10 46L 10 52C 10 55.3137 12.6863 58 16 58L 22 58M 142 22L 142 16C 142 12.6863 139.3137 10 136 10L 130 10M 130.000008 58L 22 58M 142 46L 142 52C 142 55.3137 139.3137 58 136 58L 130 58"></path></g></g></g><g id="g-root-cp_0-1_cell-0-1_90v9h41l7tog7-stroke" data-item-order="-129700" transform="translate(217, 146)"></g><g id="g-root-cp_0-2_cell-0-2_4lo8fs1l7tm2o-stroke" data-item-order="-129678" transform="translate(277, 146)"></g><g id="g-root-cp_0-3_cell-0-3_1ur5a601l7tmo9-stroke" data-item-order="-129656" transform="translate(337, 146)"></g><g id="g-root-cp_1-0_cell-1-0_1qbbs1k1l7tngi-stroke" data-item-order="-129630" transform="translate(73, 206)"><g id="cp_1-0_cell-1-0_1qbbs1k1l7tngi-stroke" fill="none" stroke-linecap="round" stroke-linejoin="round" stroke-miterlimit="4" stroke="#a6da37" stroke-width="2"><g><path d="M 10 22L 10 16C 10 12.6863 12.6863 10 16 10L 22 10M 142 22L 142 46M 10 46L 10 22M 22 10L 130.000008 10M 10 46L 10 52C 10 55.3137 12.6863 58 16 58L 22 58M 142 22L 142 16C 142 12.6863 139.3137 10 136 10L 130 10M 130.000008 58L 22 58M 142 46L 142 52C 142 55.3137 139.3137 58 136 58L 130 58"></path></g></g></g><g id="g-root-cp_1-1_cell-1-1_1qbbs1k1l7tngk-stroke" data-item-order="-129594" transform="translate(217, 206)"></g><g id="g-root-cp_1-2_cell-1-2_1hforso1l7to99-stroke" data-item-order="-129576" transform="translate(277, 206)"></g><g id="g-root-cp_1-3_cell-1-3_1czv9o81l7tp1i-stroke" data-item-order="-129558" transform="translate(337, 206)"></g><g id="g-root-cp_2-0_cell-2-0_144uqig1l7tmof-stroke" data-item-order="-129538" transform="translate(73, 266)"><g id="cp_2-0_cell-2-0_144uqig1l7tmof-stroke" fill="none" stroke-linecap="round" stroke-linejoin="round" stroke-miterlimit="4" stroke="#a6da37" stroke-width="2"><g><path d="M 10 22L 10 16C 10 12.6863 12.6863 10 16 10L 22 10M 142 22L 142 46M 10 46L 10 22M 22 10L 130.000008 10M 10 46L 10 52C 10 55.3137 12.6863 58 16 58L 22 58M 142 22L 142 16C 142 12.6863 139.3137 10 136 10L 130 10M 130.000008 58L 22 58M 142 46L 142 52C 142 55.3137 139.3137 58 136 58L 130 58"></path></g></g></g><g id="g-root-cp_2-1_cell-2-1_zp18e01l7tngp-stroke" data-item-order="-129502" transform="translate(217, 266)"></g><g id="g-root-cp_2-2_cell-2-2_v97q9k1l7to8y-stroke" data-item-order="-129484" transform="translate(277, 266)"></g><g id="g-root-cp_2-3_cell-2-3_mdkq0o1l7tp1n-stroke" data-item-order="-129466" transform="translate(337, 266)"></g><g id="g-root-cp_3-0_cell-3-0_hydozc1l7tmo4-stroke" data-item-order="-129446" transform="translate(73, 326)"><g id="cp_3-0_cell-3-0_hydozc1l7tmo4-stroke" fill="none" stroke-linecap="round" stroke-linejoin="round" stroke-miterlimit="4" stroke="#a6da37" stroke-width="2"><g><path d="M 10 22L 10 16C 10 12.6863 12.6863 10 16 10L 22 10M 142 22L 142 46M 10 46L 10 22M 22 10L 130.000008 10M 10 46L 10 52C 10 55.3137 12.6863 58 16 58L 22 58M 142 22L 142 16C 142 12.6863 139.3137 10 136 10L 130 10M 130.000008 58L 22 58M 142 46L 142 52C 142 55.3137 139.3137 58 136 58L 130 58"></path></g></g></g><g id="g-root-cp_3-1_cell-3-1_92qoqg1l7tngu-stroke" data-item-order="-129408" transform="translate(217, 326)"></g><g id="g-root-cp_3-2_cell-3-2_4mx6m01l7to93-stroke" data-item-order="-129390" transform="translate(277, 326)"></g><g id="g-root-cp_3-3_cell-3-3_73ohk1l7tp1c-stroke" data-item-order="-129372" transform="translate(337, 326)"></g><g id="g-root-tx_1_4oslvc1l7tn9l-stroke" data-item-order="0" transform="translate(355, 218)"></g><g id="g-root-tx_0_hzmn5k1l7toug-stroke" data-item-order="0" transform="translate(295, 218)"></g><g id="g-root-tx_3_8z3qw1l7to1u-stroke" data-item-order="0" transform="translate(85, 278)"></g><g id="g-root-tx_0_hzmn5k1l7touf-stroke" data-item-order="0" transform="translate(235, 218)"></g><g id="g-root-tx_0_1lz94fs1l7tm9v-stroke" data-item-order="0" transform="translate(235, 278)"></g><g id="g-root-tx_1_mfg5a01l7to26-stroke" data-item-order="0" transform="translate(85, 218)"></g><g id="g-root-tx_0_1d3m46w1l7tn2k-stroke" data-item-order="0" transform="translate(295, 278)"></g><g id="g-root-tx_5_vb35iw1l7tn9h-stroke" data-item-order="0" transform="translate(349, 158)"></g><g id="g-root-tx_0_18nsm2g1l7tnut-stroke" data-item-order="0" transform="translate(355, 278)"></g><g id="g-root-tx_3_zqwnnc1l7tmh8-stroke" data-item-order="0" transform="translate(289, 158)"></g><g id="g-root-tx_5_zs5ltk1l7toni-stroke" data-item-order="0" transform="translate(85, 338)"></g><g id="g-root-tx_1_18lx6t41l7toub-stroke" data-item-order="0" transform="translate(229, 158)"></g><g id="g-root-tx_0_v2yzeg1l7v0uf-stroke" data-item-order="0" transform="translate(235, 338)"></g><g id="g-root-tx_0_hrih141l7v2fd-stroke" data-item-order="0" transform="translate(355, 338)"></g><g id="g-root-tx_0_qn5ha01l7v1mo-stroke" data-item-order="0" transform="translate(295, 338)"></g><g id="g-root-tx_maxminco_73ohk1l7tp1d-stroke" data-item-order="0" transform="translate(25, 74)"></g><g id="g-root-tx_xvalues_1lxdp6g1l7tn9e-stroke" data-item-order="0" transform="translate(85, 158)"></g></g></g></svg>