<?xml version="1.0" encoding="utf-8" standalone="yes"?>
<!DOCTYPE svg PUBLIC "-//W3C//DTD SVG 1.1//EN" "http://www.w3.org/Graphics/SVG/1.1/DTD/svg11.dtd">
<svg width="612" height="534" viewBox="0 0 612 534" style="fill:none;stroke:none;fill-rule:evenodd;clip-rule:evenodd;stroke-linecap:round;stroke-linejoin:round;stroke-miterlimit:1.5;" version="1.1" xmlns="http://www.w3.org/2000/svg" xmlns:xlink="http://www.w3.org/1999/xlink"><style class="text-font-style fontImports" data-font-family="Roboto">@import url('https://fonts.googleapis.com/css2?family=Roboto:wght@400;700&amp;display=block');</style><rect id="" x="0" y="0" width="612" height="534" style="fill: #2c2c2c;"></rect><g id="items" style="isolation: isolate"><g id="blend" style="mix-blend-mode: normal"><g id="g-root-tf_zoft601ko2xhd-fill" data-item-order="-490212"><g id="tf_zoft601ko2xhd-fill" stroke="none" fill="#2c2c2c"><g><path d="M 0 0L 612 0L 612 534L 0 534Z"></path></g></g></g><g id="g-root-cp_0-0_cell-0-0_zoft601ko5o9b-fill" data-item-order="-247020" transform="translate(32, 110)"><g id="cp_0-0_cell-0-0_zoft601ko5o9b-fill" stroke="none" fill="#545454"><g><path d="M 10 16C 10 12.6863 12.6863 10 16 10L 22 10L 22 22L 10 22L 10 16ZM 22 10L 22 22L 154 22L 154 10L 22 10ZM 166 16C 166 12.6863 163.3137 10 160 10L 154 10L 154 22L 166 22L 166 16ZM 166.000015 22L 10 22L 10 46L 166.000015 46L 166.000015 22ZM 10 52C 10 55.3137 12.6863 58 16 58L 22 58L 22 46L 10 46L 10 52ZM 154 58L 154 46L 22 46L 22 58L 154 58ZM 160 58C 163.3137 58 166 55.3137 166 52L 166 46L 154 46L 154 58L 160 58Z"></path></g></g></g><g id="g-root-cp_0-1_cell-0-1_qsssx41ko5ptt-fill" data-item-order="-246988" transform="translate(200, 110)"><g id="cp_0-1_cell-0-1_qsssx41ko5ptt-fill" stroke="none" fill="#545454"><g><path d="M 10 16C 10 12.6863 12.6863 10 16 10L 22 10L 22 22L 10 22L 10 16ZM 22 10L 22 22L 70 22L 70 10L 22 10ZM 82 16C 82 12.6863 79.3137 10 76 10L 70 10L 70 22L 82 22L 82 16ZM 82 22L 10 22L 10 46L 82 46L 82 22ZM 10 52C 10 55.3137 12.6863 58 16 58L 22 58L 22 46L 10 46L 10 52ZM 70 58L 70 46L 22 46L 22 58L 70 58ZM 76 58C 79.3137 58 82 55.3137 82 52L 82 46L 70 46L 70 58L 76 58Z"></path></g></g></g><g id="g-root-cp_0-2_cell-0-2_hx5so81ko5qmi-fill" data-item-order="-246966" transform="translate(284, 110)"><g id="cp_0-2_cell-0-2_hx5so81ko5qmi-fill" stroke="none" fill="#545454"><g><path d="M 10 16C 10 12.6863 12.6863 10 16 10L 22 10L 22 22L 10 22L 10 16ZM 22 10L 22 22L 58 22L 58 10L 22 10ZM 70 16C 70 12.6863 67.3137 10 64 10L 58 10L 58 22L 70 22L 70 16ZM 70 22L 10 22L 10 46L 70 46L 70 22ZM 10 52C 10 55.3137 12.6863 58 16 58L 22 58L 22 46L 10 46L 10 52ZM 58 58L 58 46L 22 46L 22 58L 58 58ZM 64 58C 67.3137 58 70 55.3137 70 52L 70 46L 58 46L 58 58L 64 58Z"></path></g></g></g><g id="g-root-cp_0-3_cell-0-3_4mbre01ko5p1n-fill" data-item-order="-246944" transform="translate(356, 110)"><g id="cp_0-3_cell-0-3_4mbre01ko5p1n-fill" stroke="none" fill="#545454"><g><path d="M 10 16C 10 12.6863 12.6863 10 16 10L 22 10L 22 22L 10 22L 10 16ZM 22 10L 22 22L 70 22L 70 10L 22 10ZM 82 16C 82 12.6863 79.3137 10 76 10L 70 10L 70 22L 82 22L 82 16ZM 82 22L 10 22L 10 46L 82 46L 82 22ZM 10 52C 10 55.3137 12.6863 58 16 58L 22 58L 22 46L 10 46L 10 52ZM 70 58L 70 46L 22 46L 22 58L 70 58ZM 76 58C 79.3137 58 82 55.3137 82 52L 82 46L 70 46L 70 58L 76 58Z"></path></g></g></g><g id="g-root-cp_0-4_cell-0-4_6i99k1ko5ptw-fill" data-item-order="-246922" transform="translate(440, 110)"><g id="cp_0-4_cell-0-4_6i99k1ko5ptw-fill" stroke="none" fill="#545454"><g><path d="M 10 16C 10 12.6863 12.6863 10 16 10L 22 10L 22 22L 10 22L 10 16ZM 22 10L 22 22L 118 22L 118 10L 22 10ZM 130 16C 130 12.6863 127.3137 10 124 10L 118 10L 118 22L 130 22L 130 16ZM 130 22L 10 22L 10 46L 130 46L 130 22ZM 10 52C 10 55.3137 12.6863 58 16 58L 22 58L 22 46L 10 46L 10 52ZM 118 58L 118 46L 22 46L 22 58L 118 58ZM 124 58C 127.3137 58 130 55.3137 130 52L 130 46L 118 46L 118 58L 124 58Z"></path></g></g></g><g id="g-root-cp_1-0_cell-1-0_1qbzazs1ko5qfh-fill" data-item-order="-246896" transform="translate(32, 170)"><g id="cp_1-0_cell-1-0_1qbzazs1ko5qfh-fill" stroke="none" fill="#4b533a"><g><path d="M 10 16C 10 12.6863 12.6863 10 16 10L 22 10L 22 22L 10 22L 10 16ZM 22 10L 22 22L 154 22L 154 10L 22 10ZM 166 16C 166 12.6863 163.3137 10 160 10L 154 10L 154 22L 166 22L 166 16ZM 166.000015 22L 10 22L 10 46L 166.000015 46L 166.000015 22ZM 10 52C 10 55.3137 12.6863 58 16 58L 22 58L 22 46L 10 46L 10 52ZM 154 58L 154 46L 22 46L 22 58L 154 58ZM 160 58C 163.3137 58 166 55.3137 166 52L 166 46L 154 46L 154 58L 160 58Z"></path></g></g></g><g id="g-root-cp_1-1_cell-1-1_1lws9yg1ko5o1z-fill" data-item-order="-246860" transform="translate(200, 170)"><g id="cp_1-1_cell-1-1_1lws9yg1ko5o1z-fill" stroke="none" fill="#344e57"><g><path d="M 10 16C 10 12.6863 12.6863 10 16 10L 22 10L 22 22L 10 22L 10 16ZM 22 10L 22 22L 70 22L 70 10L 22 10ZM 82 16C 82 12.6863 79.3137 10 76 10L 70 10L 70 22L 82 22L 82 16ZM 82 22L 10 22L 10 46L 82 46L 82 22ZM 10 52C 10 55.3137 12.6863 58 16 58L 22 58L 22 46L 10 46L 10 52ZM 70 58L 70 46L 22 46L 22 58L 70 58ZM 76 58C 79.3137 58 82 55.3137 82 52L 82 46L 70 46L 70 58L 76 58Z"></path></g></g></g><g id="g-root-cp_1-2_cell-1-2_1hgyru01ko5ou8-fill" data-item-order="-246842" transform="translate(284, 170)"><g id="cp_1-2_cell-1-2_1hgyru01ko5ou8-fill" stroke="none" fill="#344e57"><g><path d="M 10 16C 10 12.6863 12.6863 10 16 10L 22 10L 22 22L 10 22L 10 16ZM 22 10L 22 22L 58 22L 58 10L 22 10ZM 70 16C 70 12.6863 67.3137 10 64 10L 58 10L 58 22L 70 22L 70 16ZM 70 22L 10 22L 10 46L 70 46L 70 22ZM 10 52C 10 55.3137 12.6863 58 16 58L 22 58L 22 46L 10 46L 10 52ZM 58 58L 58 46L 22 46L 22 58L 58 58ZM 64 58C 67.3137 58 70 55.3137 70 52L 70 46L 58 46L 58 58L 64 58Z"></path></g></g></g><g id="g-root-cp_1-3_cell-1-3_18lbrl41ko5pmx-fill" data-item-order="-246824" transform="translate(356, 170)"><g id="cp_1-3_cell-1-3_18lbrl41ko5pmx-fill" stroke="none" fill="#344e57"><g><path d="M 10 16C 10 12.6863 12.6863 10 16 10L 22 10L 22 22L 10 22L 10 16ZM 22 10L 22 22L 70 22L 70 10L 22 10ZM 82 16C 82 12.6863 79.3137 10 76 10L 70 10L 70 22L 82 22L 82 16ZM 82 22L 10 22L 10 46L 82 46L 82 22ZM 10 52C 10 55.3137 12.6863 58 16 58L 22 58L 22 46L 10 46L 10 52ZM 70 58L 70 46L 22 46L 22 58L 70 58ZM 76 58C 79.3137 58 82 55.3137 82 52L 82 46L 70 46L 70 58L 76 58Z"></path></g></g></g><g id="g-root-cp_1-4_cell-1-4_145i9go1ko5qf6-fill" data-item-order="-246806" transform="translate(440, 170)"><g id="cp_1-4_cell-1-4_145i9go1ko5qf6-fill" stroke="none" fill="#344e57"><g><path d="M 10 16C 10 12.6863 12.6863 10 16 10L 22 10L 22 22L 10 22L 10 16ZM 22 10L 22 22L 118 22L 118 10L 22 10ZM 130 16C 130 12.6863 127.3137 10 124 10L 118 10L 118 22L 130 22L 130 16ZM 130 22L 10 22L 10 46L 130 46L 130 22ZM 10 52C 10 55.3137 12.6863 58 16 58L 22 58L 22 46L 10 46L 10 52ZM 118 58L 118 46L 22 46L 22 58L 118 58ZM 124 58C 127.3137 58 130 55.3137 130 52L 130 46L 118 46L 118 58L 124 58Z"></path></g></g></g><g id="g-root-cp_2-0_cell-2-0_vahqaw1ko5o23-fill" data-item-order="-246786" transform="translate(32, 230)"><g id="cp_2-0_cell-2-0_vahqaw1ko5o23-fill" stroke="none" fill="#4b533a"><g><path d="M 10 16C 10 12.6863 12.6863 10 16 10L 22 10L 22 22L 10 22L 10 16ZM 22 10L 22 22L 154 22L 154 10L 22 10ZM 166 16C 166 12.6863 163.3137 10 160 10L 154 10L 154 22L 166 22L 166 16ZM 166.000015 22L 10 22L 10 46L 166.000015 46L 166.000015 22ZM 10 52C 10 55.3137 12.6863 58 16 58L 22 58L 22 46L 10 46L 10 52ZM 154 58L 154 46L 22 46L 22 58L 154 58ZM 160 58C 163.3137 58 166 55.3137 166 52L 166 46L 154 46L 154 58L 160 58Z"></path></g></g></g><g id="g-root-cp_2-1_cell-2-1_hz17xk1ko5pn1-fill" data-item-order="-246750" transform="translate(200, 230)"><g id="cp_2-1_cell-2-1_hz17xk1ko5pn1-fill" stroke="none" fill="#344e57"><g><path d="M 10 16C 10 12.6863 12.6863 10 16 10L 22 10L 22 22L 10 22L 10 16ZM 22 10L 22 22L 70 22L 70 10L 22 10ZM 82 16C 82 12.6863 79.3137 10 76 10L 70 10L 70 22L 82 22L 82 16ZM 82 22L 10 22L 10 46L 82 46L 82 22ZM 10 52C 10 55.3137 12.6863 58 16 58L 22 58L 22 46L 10 46L 10 52ZM 70 58L 70 46L 22 46L 22 58L 70 58ZM 76 58C 79.3137 58 82 55.3137 82 52L 82 46L 70 46L 70 58L 76 58Z"></path></g></g></g><g id="g-root-cp_2-2_cell-2-2_hz17xk1ko5pn2-fill" data-item-order="-246732" transform="translate(284, 230)"><g id="cp_2-2_cell-2-2_hz17xk1ko5pn2-fill" stroke="none" fill="#344e57"><g><path d="M 10 16C 10 12.6863 12.6863 10 16 10L 22 10L 22 22L 10 22L 10 16ZM 22 10L 22 22L 58 22L 58 10L 22 10ZM 70 16C 70 12.6863 67.3137 10 64 10L 58 10L 58 22L 70 22L 70 16ZM 70 22L 10 22L 10 46L 70 46L 70 22ZM 10 52C 10 55.3137 12.6863 58 16 58L 22 58L 22 46L 10 46L 10 52ZM 58 58L 58 46L 22 46L 22 58L 58 58ZM 64 58C 67.3137 58 70 55.3137 70 52L 70 46L 58 46L 58 58L 64 58Z"></path></g></g></g><g id="g-root-cp_2-3_cell-2-3_dj7pt41ko5qfb-fill" data-item-order="-246714" transform="translate(356, 230)"><g id="cp_2-3_cell-2-3_dj7pt41ko5qfb-fill" stroke="none" fill="#344e57"><g><path d="M 10 16C 10 12.6863 12.6863 10 16 10L 22 10L 22 22L 10 22L 10 16ZM 22 10L 22 22L 70 22L 70 10L 22 10ZM 82 16C 82 12.6863 79.3137 10 76 10L 70 10L 70 22L 82 22L 82 16ZM 82 22L 10 22L 10 46L 82 46L 82 22ZM 10 52C 10 55.3137 12.6863 58 16 58L 22 58L 22 46L 10 46L 10 52ZM 70 58L 70 46L 22 46L 22 58L 70 58ZM 76 58C 79.3137 58 82 55.3137 82 52L 82 46L 70 46L 70 58L 76 58Z"></path></g></g></g><g id="g-root-cp_2-4_cell-2-4_940ors1ko5o1s-fill" data-item-order="-246696" transform="translate(440, 230)"><g id="cp_2-4_cell-2-4_940ors1ko5o1s-fill" stroke="none" fill="#344e57"><g><path d="M 10 16C 10 12.6863 12.6863 10 16 10L 22 10L 22 22L 10 22L 10 16ZM 22 10L 22 22L 118 22L 118 10L 22 10ZM 130 16C 130 12.6863 127.3137 10 124 10L 118 10L 118 22L 130 22L 130 16ZM 130 22L 10 22L 10 46L 130 46L 130 22ZM 10 52C 10 55.3137 12.6863 58 16 58L 22 58L 22 46L 10 46L 10 52ZM 118 58L 118 46L 22 46L 22 58L 118 58ZM 124 58C 127.3137 58 130 55.3137 130 52L 130 46L 118 46L 118 58L 124 58Z"></path></g></g></g><g id="g-root-cp_3-0_cell-3-0_8doiw1ko5ouh-fill" data-item-order="-246676" transform="translate(32, 290)"><g id="cp_3-0_cell-3-0_8doiw1ko5ouh-fill" stroke="none" fill="#4b533a"><g><path d="M 10 16C 10 12.6863 12.6863 10 16 10L 22 10L 22 22L 10 22L 10 16ZM 22 10L 22 22L 154 22L 154 10L 22 10ZM 166 16C 166 12.6863 163.3137 10 160 10L 154 10L 154 22L 166 22L 166 16ZM 166.000015 22L 10 22L 10 46L 166.000015 46L 166.000015 22ZM 10 52C 10 55.3137 12.6863 58 16 58L 22 58L 22 46L 10 46L 10 52ZM 154 58L 154 46L 22 46L 22 58L 154 58ZM 160 58C 163.3137 58 166 55.3137 166 52L 166 46L 154 46L 154 58L 160 58Z"></path></g></g></g><g id="g-root-cp_3-1_cell-3-1_1uto8dk1ko5pfn-fill" data-item-order="-246640" transform="translate(200, 290)"><g id="cp_3-1_cell-3-1_1uto8dk1ko5pfn-fill" stroke="none" fill="#344e57"><g><path d="M 10 16C 10 12.6863 12.6863 10 16 10L 22 10L 22 22L 10 22L 10 16ZM 22 10L 22 22L 70 22L 70 10L 22 10ZM 82 16C 82 12.6863 79.3137 10 76 10L 70 10L 70 22L 82 22L 82 16ZM 82 22L 10 22L 10 46L 82 46L 82 22ZM 10 52C 10 55.3137 12.6863 58 16 58L 22 58L 22 46L 10 46L 10 52ZM 70 58L 70 46L 22 46L 22 58L 70 58ZM 76 58C 79.3137 58 82 55.3137 82 52L 82 46L 70 46L 70 58L 76 58Z"></path></g></g></g><g id="g-root-cp_3-2_cell-3-2_1ly184o1ko5q8c-fill" data-item-order="-246622" transform="translate(284, 290)"><g id="cp_3-2_cell-3-2_1ly184o1ko5q8c-fill" stroke="none" fill="#344e57"><g><path d="M 10 16C 10 12.6863 12.6863 10 16 10L 22 10L 22 22L 10 22L 10 16ZM 22 10L 22 22L 58 22L 58 10L 22 10ZM 70 16C 70 12.6863 67.3137 10 64 10L 58 10L 58 22L 70 22L 70 16ZM 70 22L 10 22L 10 46L 70 46L 70 22ZM 10 52C 10 55.3137 12.6863 58 16 58L 22 58L 22 46L 10 46L 10 52ZM 58 58L 58 46L 22 46L 22 58L 58 58ZM 64 58C 67.3137 58 70 55.3137 70 52L 70 46L 58 46L 58 58L 64 58Z"></path></g></g></g><g id="g-root-cp_3-3_cell-3-3_1hiu73c1ko5nut-fill" data-item-order="-246604" transform="translate(356, 290)"><g id="cp_3-3_cell-3-3_1hiu73c1ko5nut-fill" stroke="none" fill="#344e57"><g><path d="M 10 16C 10 12.6863 12.6863 10 16 10L 22 10L 22 22L 10 22L 10 16ZM 22 10L 22 22L 70 22L 70 10L 22 10ZM 82 16C 82 12.6863 79.3137 10 76 10L 70 10L 70 22L 82 22L 82 16ZM 82 22L 10 22L 10 46L 82 46L 82 22ZM 10 52C 10 55.3137 12.6863 58 16 58L 22 58L 22 46L 10 46L 10 52ZM 70 58L 70 46L 22 46L 22 58L 70 58ZM 76 58C 79.3137 58 82 55.3137 82 52L 82 46L 70 46L 70 58L 76 58Z"></path></g></g></g><g id="g-root-cp_3-4_cell-3-4_18n76ug1ko5oni-fill" data-item-order="-246586" transform="translate(440, 290)"><g id="cp_3-4_cell-3-4_18n76ug1ko5oni-fill" stroke="none" fill="#344e57"><g><path d="M 10 16C 10 12.6863 12.6863 10 16 10L 22 10L 22 22L 10 22L 10 16ZM 22 10L 22 22L 118 22L 118 10L 22 10ZM 130 16C 130 12.6863 127.3137 10 124 10L 118 10L 118 22L 130 22L 130 16ZM 130 22L 10 22L 10 46L 130 46L 130 22ZM 10 52C 10 55.3137 12.6863 58 16 58L 22 58L 22 46L 10 46L 10 52ZM 118 58L 118 46L 22 46L 22 58L 118 58ZM 124 58C 127.3137 58 130 55.3137 130 52L 130 46L 118 46L 118 58L 124 58Z"></path></g></g></g><g id="g-root-cp_4-0_cell-4-0_147doq01ko5pfr-fill" data-item-order="-246566" transform="translate(32, 350)"><g id="cp_4-0_cell-4-0_147doq01ko5pfr-fill" stroke="none" fill="#4b533a"><g><path d="M 10 16C 10 12.6863 12.6863 10 16 10L 22 10L 22 22L 10 22L 10 16ZM 22 10L 22 22L 154 22L 154 10L 22 10ZM 166 16C 166 12.6863 163.3137 10 160 10L 154 10L 154 22L 166 22L 166 16ZM 166.000015 22L 10 22L 10 46L 166.000015 46L 166.000015 22ZM 10 52C 10 55.3137 12.6863 58 16 58L 22 58L 22 46L 10 46L 10 52ZM 154 58L 154 46L 22 46L 22 58L 154 58ZM 160 58C 163.3137 58 166 55.3137 166 52L 166 46L 154 46L 154 58L 160 58Z"></path></g></g></g><g id="g-root-cp_4-1_cell-4-1_zrk6lk1ko5q81-fill" data-item-order="-246530" transform="translate(200, 350)"><g id="cp_4-1_cell-4-1_zrk6lk1ko5q81-fill" stroke="none" fill="#344e57"><g><path d="M 10 16C 10 12.6863 12.6863 10 16 10L 22 10L 22 22L 10 22L 10 16ZM 22 10L 22 22L 70 22L 70 10L 22 10ZM 82 16C 82 12.6863 79.3137 10 76 10L 70 10L 70 22L 82 22L 82 16ZM 82 22L 10 22L 10 46L 82 46L 82 22ZM 10 52C 10 55.3137 12.6863 58 16 58L 22 58L 22 46L 10 46L 10 52ZM 70 58L 70 46L 22 46L 22 58L 70 58ZM 76 58C 79.3137 58 82 55.3137 82 52L 82 46L 70 46L 70 58L 76 58Z"></path></g></g></g><g id="g-root-cp_4-2_cell-4-2_qwjnfs1ko5nuy-fill" data-item-order="-246512" transform="translate(284, 350)"><g id="cp_4-2_cell-4-2_qwjnfs1ko5nuy-fill" stroke="none" fill="#344e57"><g><path d="M 10 16C 10 12.6863 12.6863 10 16 10L 22 10L 22 22L 10 22L 10 16ZM 22 10L 22 22L 58 22L 58 10L 22 10ZM 70 16C 70 12.6863 67.3137 10 64 10L 58 10L 58 22L 70 22L 70 16ZM 70 22L 10 22L 10 46L 70 46L 70 22ZM 10 52C 10 55.3137 12.6863 58 16 58L 22 58L 22 46L 10 46L 10 52ZM 58 58L 58 46L 22 46L 22 58L 58 58ZM 64 58C 67.3137 58 70 55.3137 70 52L 70 46L 58 46L 58 58L 64 58Z"></path></g></g></g><g id="g-root-cp_4-3_cell-4-3_mgq5bc1ko5on7-fill" data-item-order="-246494" transform="translate(356, 350)"><g id="cp_4-3_cell-4-3_mgq5bc1ko5on7-fill" stroke="none" fill="#344e57"><g><path d="M 10 16C 10 12.6863 12.6863 10 16 10L 22 10L 22 22L 10 22L 10 16ZM 22 10L 22 22L 70 22L 70 10L 22 10ZM 82 16C 82 12.6863 79.3137 10 76 10L 70 10L 70 22L 82 22L 82 16ZM 82 22L 10 22L 10 46L 82 46L 82 22ZM 10 52C 10 55.3137 12.6863 58 16 58L 22 58L 22 46L 10 46L 10 52ZM 70 58L 70 46L 22 46L 22 58L 70 58ZM 76 58C 79.3137 58 82 55.3137 82 52L 82 46L 70 46L 70 58L 76 58Z"></path></g></g></g><g id="g-root-cp_4-4_cell-4-4_dl352g1ko5pfw-fill" data-item-order="-246476" transform="translate(440, 350)"><g id="cp_4-4_cell-4-4_dl352g1ko5pfw-fill" stroke="none" fill="#344e57"><g><path d="M 10 16C 10 12.6863 12.6863 10 16 10L 22 10L 22 22L 10 22L 10 16ZM 22 10L 22 22L 118 22L 118 10L 22 10ZM 130 16C 130 12.6863 127.3137 10 124 10L 118 10L 118 22L 130 22L 130 16ZM 130 22L 10 22L 10 46L 130 46L 130 22ZM 10 52C 10 55.3137 12.6863 58 16 58L 22 58L 22 46L 10 46L 10 52ZM 118 58L 118 46L 22 46L 22 58L 118 58ZM 124 58C 127.3137 58 130 55.3137 130 52L 130 46L 118 46L 118 58L 124 58Z"></path></g></g></g><g id="g-root-cp_5-0_cell-5-0_959my01ko5q85-fill" data-item-order="-246456" transform="translate(32, 410)"><g id="cp_5-0_cell-5-0_959my01ko5q85-fill" stroke="none" fill="#4b533a"><g><path d="M 10 16C 10 12.6863 12.6863 10 16 10L 22 10L 22 22L 10 22L 10 16ZM 22 10L 22 22L 154 22L 154 10L 22 10ZM 166 16C 166 12.6863 163.3137 10 160 10L 154 10L 154 22L 166 22L 166 16ZM 166.000015 22L 10 22L 10 46L 166.000015 46L 166.000015 22ZM 10 52C 10 55.3137 12.6863 58 16 58L 22 58L 22 46L 10 46L 10 52ZM 154 58L 154 46L 22 46L 22 58L 154 58ZM 160 58C 163.3137 58 166 55.3137 166 52L 166 46L 154 46L 154 58L 160 58Z"></path></g></g></g><g id="g-root-cp_5-1_cell-5-1_9lk81knklcf-fill" data-item-order="-246418" transform="translate(200, 410)"><g id="cp_5-1_cell-5-1_9lk81knklcf-fill" stroke="none" fill="#344e57"><g><path d="M 10 16C 10 12.6863 12.6863 10 16 10L 22 10L 22 22L 10 22L 10 16ZM 22 10L 22 22L 70 22L 70 10L 22 10ZM 82 16C 82 12.6863 79.3137 10 76 10L 70 10L 70 22L 82 22L 82 16ZM 82 22L 10 22L 10 46L 82 46L 82 22ZM 10 52C 10 55.3137 12.6863 58 16 58L 22 58L 22 46L 10 46L 10 52ZM 70 58L 70 46L 22 46L 22 58L 70 58ZM 76 58C 79.3137 58 82 55.3137 82 52L 82 46L 70 46L 70 58L 76 58Z"></path></g></g></g><g id="g-root-cp_5-2_cell-5-2_1ulk5ew1knklxk-fill" data-item-order="-246400" transform="translate(284, 410)"><g id="cp_5-2_cell-5-2_1ulk5ew1knklxk-fill" stroke="none" fill="#344e57"><g><path d="M 10 16C 10 12.6863 12.6863 10 16 10L 22 10L 22 22L 10 22L 10 16ZM 22 10L 22 22L 58 22L 58 10L 22 10ZM 70 16C 70 12.6863 67.3137 10 64 10L 58 10L 58 22L 70 22L 70 16ZM 70 22L 10 22L 10 46L 70 46L 70 22ZM 10 52C 10 55.3137 12.6863 58 16 58L 22 58L 22 46L 10 46L 10 52ZM 58 58L 58 46L 22 46L 22 58L 58 58ZM 64 58C 67.3137 58 70 55.3137 70 52L 70 46L 58 46L 58 58L 64 58Z"></path></g></g></g><g id="g-root-cp_5-3_cell-5-3_1q5qnag1knkmpt-fill" data-item-order="-246382" transform="translate(356, 410)"><g id="cp_5-3_cell-5-3_1q5qnag1knkmpt-fill" stroke="none" fill="#344e57"><g><path d="M 10 16C 10 12.6863 12.6863 10 16 10L 22 10L 22 22L 10 22L 10 16ZM 22 10L 22 22L 70 22L 70 10L 22 10ZM 82 16C 82 12.6863 79.3137 10 76 10L 70 10L 70 22L 82 22L 82 16ZM 82 22L 10 22L 10 46L 82 46L 82 22ZM 10 52C 10 55.3137 12.6863 58 16 58L 22 58L 22 46L 10 46L 10 52ZM 70 58L 70 46L 22 46L 22 58L 70 58ZM 76 58C 79.3137 58 82 55.3137 82 52L 82 46L 70 46L 70 58L 76 58Z"></path></g></g></g><g id="g-root-cp_5-4_cell-5-4_1ha3n1k1knknii-fill" data-item-order="-246364" transform="translate(440, 410)"><g id="cp_5-4_cell-5-4_1ha3n1k1knknii-fill" stroke="none" fill="#344e57"><g><path d="M 10 16C 10 12.6863 12.6863 10 16 10L 22 10L 22 22L 10 22L 10 16ZM 22 10L 22 22L 118 22L 118 10L 22 10ZM 130 16C 130 12.6863 127.3137 10 124 10L 118 10L 118 22L 130 22L 130 16ZM 130 22L 10 22L 10 46L 130 46L 130 22ZM 10 52C 10 55.3137 12.6863 58 16 58L 22 58L 22 46L 10 46L 10 52ZM 118 58L 118 46L 22 46L 22 58L 118 58ZM 124 58C 127.3137 58 130 55.3137 130 52L 130 46L 118 46L 118 58L 124 58Z"></path></g></g></g><g id="g-root-tx_0_1uooiug1knkn4a-fill" data-item-order="0" transform="translate(494, 242)"><g id="tx_0_1uooiug1knkn4a-fill" stroke="none" fill="#ffffff"><g><text style="font: 15px Roboto, sans-serif; white-space: pre;" font-size="15px" font-family="Roboto, sans-serif"><tspan x="11.78" y="31" dominant-baseline="ideographic">0</tspan></text></g></g></g><g id="g-root-tx_0_4j7h481knkmip-fill" data-item-order="0" transform="translate(386, 242)"><g id="tx_0_4j7h481knkmip-fill" stroke="none" fill="#ffffff"><g><text style="font: 15px Roboto, sans-serif; white-space: pre;" font-size="15px" font-family="Roboto, sans-serif"><tspan x="11.78" y="31" dominant-baseline="ideographic">0</tspan></text></g></g></g><g id="g-root-tx_mark_1q8v0q01knknwj-fill" data-item-order="0" transform="translate(44, 302)"><g id="tx_mark_1q8v0q01knknwj-fill" stroke="none" fill="#a6da37"><g><text style="font: bold 20px Roboto, sans-serif; white-space: pre;" font-weight="bold" font-size="20px" font-family="Roboto, sans-serif"><tspan x="12" y="34" dominant-baseline="ideographic">Mark</tspan></text></g></g></g><g id="g-root-tx_0_8z0z8o1knklqg-fill" data-item-order="0" transform="translate(308, 242)"><g id="tx_0_8z0z8o1knklqg-fill" stroke="none" fill="#ffffff"><g><text style="font: 15px Roboto, sans-serif; white-space: pre;" font-size="15px" font-family="Roboto, sans-serif"><tspan x="11.78" y="31" dominant-baseline="ideographic">0</tspan></text></g></g></g><g id="g-root-tx_0_1hduhk81knkljg-fill" data-item-order="0" transform="translate(230, 302)"><g id="tx_0_1hduhk81knkljg-fill" stroke="none" fill="#ffffff"><g><text style="font: 15px Roboto, sans-serif; white-space: pre;" font-size="15px" font-family="Roboto, sans-serif"><tspan x="11.78" y="31" dominant-baseline="ideographic">0</tspan></text></g></g></g><g id="g-root-tx_1_de80a01knko3z-fill" data-item-order="0" transform="translate(230, 242)"><g id="tx_1_de80a01knko3z-fill" stroke="none" fill="#ffffff"><g><text style="font: 15px Roboto, sans-serif; white-space: pre;" font-size="15px" font-family="Roboto, sans-serif"><tspan x="11.78" y="31" dominant-baseline="ideographic">1</tspan></text></g></g></g><g id="g-root-tx_0_1cy0zfs1knkmbp-fill" data-item-order="0" transform="translate(308, 302)"><g id="tx_0_1cy0zfs1knkmbp-fill" stroke="none" fill="#ffffff"><g><text style="font: 15px Roboto, sans-serif; white-space: pre;" font-size="15px" font-family="Roboto, sans-serif"><tspan x="11.78" y="31" dominant-baseline="ideographic">0</tspan></text></g></g></g><g id="g-root-tx_rupee_qpoinc1knkmj2-fill" data-item-order="0" transform="translate(44, 242)"><g id="tx_rupee_qpoinc1knkmj2-fill" stroke="none" fill="#a6da37"><g><text style="font: bold 20px Roboto, sans-serif; white-space: pre;" font-weight="bold" font-size="20px" font-family="Roboto, sans-serif"><tspan x="12" y="34" dominant-baseline="ideographic">Rupee</tspan></text></g></g></g><g id="g-root-tx_0_142dz6w1knkn4e-fill" data-item-order="0" transform="translate(386, 302)"><g id="tx_0_142dz6w1knkn4e-fill" stroke="none" fill="#ffffff"><g><text style="font: 15px Roboto, sans-serif; white-space: pre;" font-size="15px" font-family="Roboto, sans-serif"><tspan x="11.78" y="31" dominant-baseline="ideographic">0</tspan></text></g></g></g><g id="g-root-tx_0_140ijxk1knko3x-fill" data-item-order="0" transform="translate(494, 182)"><g id="tx_0_140ijxk1knko3x-fill" stroke="none" fill="#ffffff"><g><text style="font: 15px Roboto, sans-serif; white-space: pre;" font-size="15px" font-family="Roboto, sans-serif"><tspan x="11.78" y="31" dominant-baseline="ideographic">0</tspan></text></g></g></g><g id="g-root-tx_1_zmkh2g1knknwn-fill" data-item-order="0" transform="translate(494, 302)"><g id="tx_1_zmkh2g1knknwn-fill" stroke="none" fill="#ffffff"><g><text style="font: 15px Roboto, sans-serif; white-space: pre;" font-size="15px" font-family="Roboto, sans-serif"><tspan x="11.78" y="31" dominant-baseline="ideographic">1</tspan></text></g></g></g><g id="g-root-tx_1_1cw5k6g1knknb8-fill" data-item-order="0" transform="translate(386, 182)"><g id="tx_1_1cw5k6g1knknb8-fill" stroke="none" fill="#ffffff"><g><text style="font: 15px Roboto, sans-serif; white-space: pre;" font-size="15px" font-family="Roboto, sans-serif"><tspan x="11.78" y="31" dominant-baseline="ideographic">1</tspan></text></g></g></g><g id="g-root-tx_pound_v7dg141knklj4-fill" data-item-order="0" transform="translate(44, 362)"><g id="tx_pound_v7dg141knklj4-fill" stroke="none" fill="#a6da37"><g><text style="font: bold 20px Roboto, sans-serif; white-space: pre;" font-weight="bold" font-size="20px" font-family="Roboto, sans-serif"><tspan x="12" y="34" dominant-baseline="ideographic">Pound</tspan></text></g></g></g><g id="g-root-tx_0_1hbz2aw1knkmiz-fill" data-item-order="0" transform="translate(308, 182)"><g id="tx_0_1hbz2aw1knkmiz-fill" stroke="none" fill="#ffffff"><g><text style="font: 15px Roboto, sans-serif; white-space: pre;" font-size="15px" font-family="Roboto, sans-serif"><tspan x="11.78" y="31" dominant-baseline="ideographic">0</tspan></text></g></g></g><g id="g-root-tx_0_mbqfs81knkmbt-fill" data-item-order="0" transform="translate(230, 362)"><g id="tx_0_mbqfs81knkmbt-fill" stroke="none" fill="#ffffff"><g><text style="font: 15px Roboto, sans-serif; white-space: pre;" font-size="15px" font-family="Roboto, sans-serif"><tspan x="11.78" y="31" dominant-baseline="ideographic">0</tspan></text></g></g></g><g id="g-root-tx_0_1q7m2js1knklqa-fill" data-item-order="0" transform="translate(230, 182)"><g id="tx_0_1q7m2js1knklqa-fill" stroke="none" fill="#ffffff"><g><text style="font: 15px Roboto, sans-serif; white-space: pre;" font-size="15px" font-family="Roboto, sans-serif"><tspan x="11.78" y="31" dominant-baseline="ideographic">0</tspan></text></g></g></g><g id="g-root-tx_1_hvwxns1knkn42-fill" data-item-order="0" transform="translate(308, 362)"><g id="tx_1_hvwxns1knkn42-fill" stroke="none" fill="#ffffff"><g><text style="font: 15px Roboto, sans-serif; white-space: pre;" font-size="15px" font-family="Roboto, sans-serif"><tspan x="11.78" y="31" dominant-baseline="ideographic">1</tspan></text></g></g></g><g id="g-root-tx_dollar_4hc1uw1knkni9-fill" data-item-order="0" transform="translate(44, 182)"><g id="tx_dollar_4hc1uw1knkni9-fill" stroke="none" fill="#a6da37"><g><text style="font: bold 20px Roboto, sans-serif; white-space: pre;" font-weight="bold" font-size="20px" font-family="Roboto, sans-serif"><tspan x="12" y="34" dominant-baseline="ideographic">Dollar</tspan></text></g></g></g><g id="g-root-tx_0_4l2wdk1knklj7-fill" data-item-order="0" transform="translate(386, 362)"><g id="tx_0_4l2wdk1knklj7-fill" stroke="none" fill="#ffffff"><g><text style="font: 15px Roboto, sans-serif; white-space: pre;" font-size="15px" font-family="Roboto, sans-serif"><tspan x="11.78" y="31" dominant-baseline="ideographic">0</tspan></text></g></g></g><g id="g-root-tx_germany_8x5jzc1knkmq0-fill" data-item-order="0" transform="translate(452, 122)"><g id="tx_germany_8x5jzc1knkmq0-fill" stroke="none" fill="#b7b7b7"><g><text style="font: bold 20px Roboto, sans-serif; white-space: pre;" font-weight="bold" font-size="20px" font-family="Roboto, sans-serif"><tspan x="17.46" y="34" dominant-baseline="ideographic">Germany</tspan></text></g></g></g><g id="g-root-tx_0_1uqjy3s1knkm4s-fill" data-item-order="0" transform="translate(494, 362)"><g id="tx_0_1uqjy3s1knkm4s-fill" stroke="none" fill="#ffffff"><g><text style="font: 15px Roboto, sans-serif; white-space: pre;" font-size="15px" font-family="Roboto, sans-serif"><tspan x="11.78" y="31" dominant-baseline="ideographic">0</tspan></text></g></g></g><g id="g-root-tx_usa_dcz23s1knklxr-fill" data-item-order="0" transform="translate(368, 122)"><g id="tx_usa_dcz23s1knklxr-fill" stroke="none" fill="#b7b7b7"><g><text style="font: bold 20px Roboto, sans-serif; white-space: pre;" font-weight="bold" font-size="20px" font-family="Roboto, sans-serif"><tspan x="14.53" y="34" dominant-baseline="ideographic">USA</tspan></text></g></g></g><g id="g-root-tx_euro_1qaqfzc1knkmx1-fill" data-item-order="0" transform="translate(44, 422)"><g id="tx_euro_1qaqfzc1knkmx1-fill" stroke="none" fill="#a6da37"><g><text style="font: bold 20px Roboto, sans-serif; white-space: pre;" font-weight="bold" font-size="20px" font-family="Roboto, sans-serif"><tspan x="12" y="34" dominant-baseline="ideographic">Euro</tspan></text></g></g></g><g id="g-root-tx_uk_m7zl9k1knkoau-fill" data-item-order="0" transform="translate(296, 122)"><g id="tx_uk_m7zl9k1knkoau-fill" stroke="none" fill="#b7b7b7"><g><text style="font: bold 20px Roboto, sans-serif; white-space: pre;" font-weight="bold" font-size="20px" font-family="Roboto, sans-serif"><tspan x="15.05" y="34" dominant-baseline="ideographic">UK</tspan></text></g></g></g><g id="g-root-tx_0_1czwep41knklc6-fill" data-item-order="0" transform="translate(230, 422)"><g id="tx_0_1czwep41knklc6-fill" stroke="none" fill="#ffffff"><g><text style="font: 15px Roboto, sans-serif; white-space: pre;" font-size="15px" font-family="Roboto, sans-serif"><tspan x="11.78" y="31" dominant-baseline="ideographic">0</tspan></text></g></g></g><g id="g-root-tx_india_qnt3e01knknil-fill" data-item-order="0" transform="translate(212, 122)"><g id="tx_india_qnt3e01knknil-fill" stroke="none" fill="#b7b7b7"><g><text style="font: bold 20px Roboto, sans-serif; white-space: pre;" font-weight="bold" font-size="20px" font-family="Roboto, sans-serif"><tspan x="11.84" y="34" dominant-baseline="ideographic">India</tspan></text></g></g></g><g id="g-root-tx_0_1449eg81knkm4v-fill" data-item-order="0" transform="translate(308, 422)"><g id="tx_0_1449eg81knkm4v-fill" stroke="none" fill="#ffffff"><g><text style="font: 15px Roboto, sans-serif; white-space: pre;" font-size="15px" font-family="Roboto, sans-serif"><tspan x="11.78" y="31" dominant-baseline="ideographic">0</tspan></text></g></g></g><g id="g-root-tx_characte_zjg3mw1knkmpw-fill" data-item-order="0" transform="translate(44, 122)"><g id="tx_characte_zjg3mw1knkmpw-fill" stroke="none" fill="#b7b7b7"><g><text style="font: bold 20px Roboto, sans-serif; white-space: pre;" font-weight="bold" font-size="20px" font-family="Roboto, sans-serif"><tspan x="12" y="34" dominant-baseline="ideographic">Characteristic</tspan></text></g></g></g><g id="g-root-tx_0_zofwbs1knkmx4-fill" data-item-order="0" transform="translate(386, 422)"><g id="tx_0_zofwbs1knkmx4-fill" stroke="none" fill="#ffffff"><g><text style="font: 15px Roboto, sans-serif; white-space: pre;" font-size="15px" font-family="Roboto, sans-serif"><tspan x="11.78" y="31" dominant-baseline="ideographic">0</tspan></text></g></g></g><g id="g-root-tx_currency_1cua4x41knkoar-fill" data-item-order="0" transform="translate(116, 38)"><g id="tx_currency_1cua4x41knkoar-fill" stroke="none" fill="#f4f4f4"><g><text style="font: bold 25px Roboto, sans-serif; white-space: pre;" font-weight="bold" font-size="25px" font-family="Roboto, sans-serif"><tspan x="15.52" y="43" dominant-baseline="ideographic">Currency ownership by country</tspan></text></g></g></g><g id="g-root-tx_1_v8me7c1knknpd-fill" data-item-order="0" transform="translate(494, 422)"><g id="tx_1_v8me7c1knknpd-fill" stroke="none" fill="#ffffff"><g><text style="font: 15px Roboto, sans-serif; white-space: pre;" font-size="15px" font-family="Roboto, sans-serif"><tspan x="11.78" y="31" dominant-baseline="ideographic">1</tspan></text></g></g></g><g id="g-root-tf_zoft601ko2xhd-stroke" data-item-order="-490212"></g><g id="g-root-cp_0-0_cell-0-0_zoft601ko5o9b-stroke" data-item-order="-247020" transform="translate(32, 110)"><g id="cp_0-0_cell-0-0_zoft601ko5o9b-stroke" fill="none" stroke-linecap="round" stroke-linejoin="round" stroke-miterlimit="4" stroke="#b7b7b7" stroke-width="2"><g><path d="M 10 22L 10 16C 10 12.6863 12.6863 10 16 10L 22 10M 166.000015 22L 166.000015 46M 10 46L 10 22M 22 10L 154 10M 10 46L 10 52C 10 55.3137 12.6863 58 16 58L 22 58M 166 22L 166 16C 166 12.6863 163.3137 10 160 10L 154 10M 154 58L 22 58M 166 46L 166 52C 166 55.3137 163.3137 58 160 58L 154 58"></path></g></g></g><g id="g-root-cp_0-1_cell-0-1_qsssx41ko5ptt-stroke" data-item-order="-246988" transform="translate(200, 110)"></g><g id="g-root-cp_0-2_cell-0-2_hx5so81ko5qmi-stroke" data-item-order="-246966" transform="translate(284, 110)"></g><g id="g-root-cp_0-3_cell-0-3_4mbre01ko5p1n-stroke" data-item-order="-246944" transform="translate(356, 110)"></g><g id="g-root-cp_0-4_cell-0-4_6i99k1ko5ptw-stroke" data-item-order="-246922" transform="translate(440, 110)"></g><g id="g-root-cp_1-0_cell-1-0_1qbzazs1ko5qfh-stroke" data-item-order="-246896" transform="translate(32, 170)"><g id="cp_1-0_cell-1-0_1qbzazs1ko5qfh-stroke" fill="none" stroke-linecap="round" stroke-linejoin="round" stroke-miterlimit="4" stroke="#a6da37" stroke-width="2"><g><path d="M 10 22L 10 16C 10 12.6863 12.6863 10 16 10L 22 10M 166.000015 22L 166.000015 46M 10 46L 10 22M 22 10L 154 10M 10 46L 10 52C 10 55.3137 12.6863 58 16 58L 22 58M 166 22L 166 16C 166 12.6863 163.3137 10 160 10L 154 10M 154 58L 22 58M 166 46L 166 52C 166 55.3137 163.3137 58 160 58L 154 58"></path></g></g></g><g id="g-root-cp_1-1_cell-1-1_1lws9yg1ko5o1z-stroke" data-item-order="-246860" transform="translate(200, 170)"></g><g id="g-root-cp_1-2_cell-1-2_1hgyru01ko5ou8-stroke" data-item-order="-246842" transform="translate(284, 170)"></g><g id="g-root-cp_1-3_cell-1-3_18lbrl41ko5pmx-stroke" data-item-order="-246824" transform="translate(356, 170)"></g><g id="g-root-cp_1-4_cell-1-4_145i9go1ko5qf6-stroke" data-item-order="-246806" transform="translate(440, 170)"></g><g id="g-root-cp_2-0_cell-2-0_vahqaw1ko5o23-stroke" data-item-order="-246786" transform="translate(32, 230)"><g id="cp_2-0_cell-2-0_vahqaw1ko5o23-stroke" fill="none" stroke-linecap="round" stroke-linejoin="round" stroke-miterlimit="4" stroke="#a6da37" stroke-width="2"><g><path d="M 10 22L 10 16C 10 12.6863 12.6863 10 16 10L 22 10M 166.000015 22L 166.000015 46M 10 46L 10 22M 22 10L 154 10M 10 46L 10 52C 10 55.3137 12.6863 58 16 58L 22 58M 166 22L 166 16C 166 12.6863 163.3137 10 160 10L 154 10M 154 58L 22 58M 166 46L 166 52C 166 55.3137 163.3137 58 160 58L 154 58"></path></g></g></g><g id="g-root-cp_2-1_cell-2-1_hz17xk1ko5pn1-stroke" data-item-order="-246750" transform="translate(200, 230)"></g><g id="g-root-cp_2-2_cell-2-2_hz17xk1ko5pn2-stroke" data-item-order="-246732" transform="translate(284, 230)"></g><g id="g-root-cp_2-3_cell-2-3_dj7pt41ko5qfb-stroke" data-item-order="-246714" transform="translate(356, 230)"></g><g id="g-root-cp_2-4_cell-2-4_940ors1ko5o1s-stroke" data-item-order="-246696" transform="translate(440, 230)"></g><g id="g-root-cp_3-0_cell-3-0_8doiw1ko5ouh-stroke" data-item-order="-246676" transform="translate(32, 290)"><g id="cp_3-0_cell-3-0_8doiw1ko5ouh-stroke" fill="none" stroke-linecap="round" stroke-linejoin="round" stroke-miterlimit="4" stroke="#a6da37" stroke-width="2"><g><path d="M 10 22L 10 16C 10 12.6863 12.6863 10 16 10L 22 10M 166.000015 22L 166.000015 46M 10 46L 10 22M 22 10L 154 10M 10 46L 10 52C 10 55.3137 12.6863 58 16 58L 22 58M 166 22L 166 16C 166 12.6863 163.3137 10 160 10L 154 10M 154 58L 22 58M 166 46L 166 52C 166 55.3137 163.3137 58 160 58L 154 58"></path></g></g></g><g id="g-root-cp_3-1_cell-3-1_1uto8dk1ko5pfn-stroke" data-item-order="-246640" transform="translate(200, 290)"></g><g id="g-root-cp_3-2_cell-3-2_1ly184o1ko5q8c-stroke" data-item-order="-246622" transform="translate(284, 290)"></g><g id="g-root-cp_3-3_cell-3-3_1hiu73c1ko5nut-stroke" data-item-order="-246604" transform="translate(356, 290)"></g><g id="g-root-cp_3-4_cell-3-4_18n76ug1ko5oni-stroke" data-item-order="-246586" transform="translate(440, 290)"></g><g id="g-root-cp_4-0_cell-4-0_147doq01ko5pfr-stroke" data-item-order="-246566" transform="translate(32, 350)"><g id="cp_4-0_cell-4-0_147doq01ko5pfr-stroke" fill="none" stroke-linecap="round" stroke-linejoin="round" stroke-miterlimit="4" stroke="#a6da37" stroke-width="2"><g><path d="M 10 22L 10 16C 10 12.6863 12.6863 10 16 10L 22 10M 166.000015 22L 166.000015 46M 10 46L 10 22M 22 10L 154 10M 10 46L 10 52C 10 55.3137 12.6863 58 16 58L 22 58M 166 22L 166 16C 166 12.6863 163.3137 10 160 10L 154 10M 154 58L 22 58M 166 46L 166 52C 166 55.3137 163.3137 58 160 58L 154 58"></path></g></g></g><g id="g-root-cp_4-1_cell-4-1_zrk6lk1ko5q81-stroke" data-item-order="-246530" transform="translate(200, 350)"></g><g id="g-root-cp_4-2_cell-4-2_qwjnfs1ko5nuy-stroke" data-item-order="-246512" transform="translate(284, 350)"></g><g id="g-root-cp_4-3_cell-4-3_mgq5bc1ko5on7-stroke" data-item-order="-246494" transform="translate(356, 350)"></g><g id="g-root-cp_4-4_cell-4-4_dl352g1ko5pfw-stroke" data-item-order="-246476" transform="translate(440, 350)"></g><g id="g-root-cp_5-0_cell-5-0_959my01ko5q85-stroke" data-item-order="-246456" transform="translate(32, 410)"><g id="cp_5-0_cell-5-0_959my01ko5q85-stroke" fill="none" stroke-linecap="round" stroke-linejoin="round" stroke-miterlimit="4" stroke="#a6da37" stroke-width="2"><g><path d="M 10 22L 10 16C 10 12.6863 12.6863 10 16 10L 22 10M 166.000015 22L 166.000015 46M 10 46L 10 22M 22 10L 154 10M 10 46L 10 52C 10 55.3137 12.6863 58 16 58L 22 58M 166 22L 166 16C 166 12.6863 163.3137 10 160 10L 154 10M 154 58L 22 58M 166 46L 166 52C 166 55.3137 163.3137 58 160 58L 154 58"></path></g></g></g><g id="g-root-cp_5-1_cell-5-1_9lk81knklcf-stroke" data-item-order="-246418" transform="translate(200, 410)"></g><g id="g-root-cp_5-2_cell-5-2_1ulk5ew1knklxk-stroke" data-item-order="-246400" transform="translate(284, 410)"></g><g id="g-root-cp_5-3_cell-5-3_1q5qnag1knkmpt-stroke" data-item-order="-246382" transform="translate(356, 410)"></g><g id="g-root-cp_5-4_cell-5-4_1ha3n1k1knknii-stroke" data-item-order="-246364" transform="translate(440, 410)"></g><g id="g-root-tx_0_1uooiug1knkn4a-stroke" data-item-order="0" transform="translate(494, 242)"></g><g id="g-root-tx_0_4j7h481knkmip-stroke" data-item-order="0" transform="translate(386, 242)"></g><g id="g-root-tx_mark_1q8v0q01knknwj-stroke" data-item-order="0" transform="translate(44, 302)"></g><g id="g-root-tx_0_8z0z8o1knklqg-stroke" data-item-order="0" transform="translate(308, 242)"></g><g id="g-root-tx_0_1hduhk81knkljg-stroke" data-item-order="0" transform="translate(230, 302)"></g><g id="g-root-tx_1_de80a01knko3z-stroke" data-item-order="0" transform="translate(230, 242)"></g><g id="g-root-tx_0_1cy0zfs1knkmbp-stroke" data-item-order="0" transform="translate(308, 302)"></g><g id="g-root-tx_rupee_qpoinc1knkmj2-stroke" data-item-order="0" transform="translate(44, 242)"></g><g id="g-root-tx_0_142dz6w1knkn4e-stroke" data-item-order="0" transform="translate(386, 302)"></g><g id="g-root-tx_0_140ijxk1knko3x-stroke" data-item-order="0" transform="translate(494, 182)"></g><g id="g-root-tx_1_zmkh2g1knknwn-stroke" data-item-order="0" transform="translate(494, 302)"></g><g id="g-root-tx_1_1cw5k6g1knknb8-stroke" data-item-order="0" transform="translate(386, 182)"></g><g id="g-root-tx_pound_v7dg141knklj4-stroke" data-item-order="0" transform="translate(44, 362)"></g><g id="g-root-tx_0_1hbz2aw1knkmiz-stroke" data-item-order="0" transform="translate(308, 182)"></g><g id="g-root-tx_0_mbqfs81knkmbt-stroke" data-item-order="0" transform="translate(230, 362)"></g><g id="g-root-tx_0_1q7m2js1knklqa-stroke" data-item-order="0" transform="translate(230, 182)"></g><g id="g-root-tx_1_hvwxns1knkn42-stroke" data-item-order="0" transform="translate(308, 362)"></g><g id="g-root-tx_dollar_4hc1uw1knkni9-stroke" data-item-order="0" transform="translate(44, 182)"></g><g id="g-root-tx_0_4l2wdk1knklj7-stroke" data-item-order="0" transform="translate(386, 362)"></g><g id="g-root-tx_germany_8x5jzc1knkmq0-stroke" data-item-order="0" transform="translate(452, 122)"></g><g id="g-root-tx_0_1uqjy3s1knkm4s-stroke" data-item-order="0" transform="translate(494, 362)"></g><g id="g-root-tx_usa_dcz23s1knklxr-stroke" data-item-order="0" transform="translate(368, 122)"></g><g id="g-root-tx_euro_1qaqfzc1knkmx1-stroke" data-item-order="0" transform="translate(44, 422)"></g><g id="g-root-tx_uk_m7zl9k1knkoau-stroke" data-item-order="0" transform="translate(296, 122)"></g><g id="g-root-tx_0_1czwep41knklc6-stroke" data-item-order="0" transform="translate(230, 422)"></g><g id="g-root-tx_india_qnt3e01knknil-stroke" data-item-order="0" transform="translate(212, 122)"></g><g id="g-root-tx_0_1449eg81knkm4v-stroke" data-item-order="0" transform="translate(308, 422)"></g><g id="g-root-tx_characte_zjg3mw1knkmpw-stroke" data-item-order="0" transform="translate(44, 122)"></g><g id="g-root-tx_0_zofwbs1knkmx4-stroke" data-item-order="0" transform="translate(386, 422)"></g><g id="g-root-tx_currency_1cua4x41knkoar-stroke" data-item-order="0" transform="translate(116, 38)"></g><g id="g-root-tx_1_v8me7c1knknpd-stroke" data-item-order="0" transform="translate(494, 422)"></g></g></g></svg>